<svg xmlns="http://www.w3.org/2000/svg" width="209" height="294" fill="none" xmlns:v="https://vecta.io/nano"><path d="M195.2 232.7c-6.6 13-14.9 21.2-26.2 28.3-16.5 10.5-33.7 8-39.3 4.7l.6 1.5.5 1.4c2.2 5.9.7 12.1-7.3 13-2.1.3-4.5.4-7.3 1.7-1.9.9-4.1 2.4-6.5 4.9-1 1-3.1 3.7-4.1 5.8-1-2.1-3.1-4.8-4.1-5.8-2.4-2.5-4.6-4-6.5-4.9-2.8-1.3-5.2-1.4-7.3-1.7-8.1-.9-9.5-7.1-7.4-13.1l.5-1.3.6-1.5c-4.1 2.4-14.2 4.2-26 1l-1.2-.3c-9.5-2.5-17.9-7.2-25-13.9-8.6-8.1-13.3-16.8-15.1-20.1C-1.6 200 .6 151.8.6 146.7.1 91.1 12.4 59.9 22.9 44.9L17.6 38c-1.1-1-2.9-2.7-6.6-3.2-1-7.3-3.8-15.9-3.8-15.9s7.3 5.2 14.1 8.2c-.5 3.7.4 5.9 1.4 7.2.1.2 1.6 2.2 4.2 5.6 4.7-5.8 9.7-10.1 17.5-14.6 1.9-1.1 3.9-2.1 6.1-3.1-.1-3 .9-5.7 2.8-7.7.1-1.7 1.5-3.9 3.3-4.5 1.8-.5 4.5.4 5.8 1.6 2.9.4 5.8 1.9 7.9 4.3 6.5-1.4 13.8-2.4 22.2-2.9 1-4.1 3.6-7.1 6.9-8.7.8-1.8 3.3-3.6 5.4-3.7 2.1.1 4.6 1.9 5.4 3.7 3.3 1.6 5.9 4.6 6.9 8.7 8.4.5 15.7 1.5 22.2 2.9 2.1-2.3 4.9-3.9 7.9-4.3 1.3-1.3 4-2.1 5.8-1.6 1.7.6 3.2 2.8 3.3 4.5 1.9 2 3 4.8 2.8 7.8 2.2 1 4.2 2 6.1 3.1 7.8 4.5 13.3 9.4 17.8 14.8l4.6-6.2c.9-1.3 1.9-3.6 1.4-7.2 6.8-2.9 14.1-8.2 14.1-8.2s-2.7 8.7-3.7 15.9c-3.8.5-5.6 2.2-6.6 3.3-.2.1-2.4 3.1-6 7.8 10.5 15.2 22.6 46.1 22.1 101.3-.1 4.2 2 53.3-13.7 85.8zM160.5 69.6c-16.5-16.3-40.1-17.4-46.3-16.9-1.4.1-3.1 1.2-1.3 3.6-1.3.6-6.4.1-8.2-1.6-1.9 1.8-6.9 2.2-8.3 1.6 1.8-2.4.2-3.5-1.3-3.6-6.2-.4-31 2-46 16.6L75 103.5l2.2 1h.4l2.6-1.7 4.4-4.8c3.4-3.5 6.6-6.1 7.1-6.6 1.4-1.3 1.9-2.4 1.9-3.5-.1-1.2-1.1-1.7-1.7-2.5l-.3.4-1.2-2.4-.4.9s-1.3-3-3.3-2.8c-2.8.4-4.6-.8-4.8-.9l-.2 1.9h-.1c-1.9-1.6-2.5-5.7 1.2-8.4 2.2-1.7 2.7-1.6 4.4-2.4l1.4-1.3c1.2-1.4 3.5-2.2 4.8-2.6 1.7-.4 5.7-1 9.7-.8 2.2.1 4.3.6 5.8 1.3 1.2.5 4.6 3 6.5 5.5 1.2 1.6 3.4 6.3 4.6 9.2l3.9 9.6c1.9 4.6 3.1 7.3 5 9.9.7.9 1.3 1.2 2.6 1.3l2.7-.6 1.1-1.1 25.2-32.5z" fill="#fff"/><path d="M120.1 250.7l-.3.4h-.1-.1c-.3-.2-1.4-.8-2.6-1.9 1.3 5 2.5 13.1 2.8 19.7 3.5-1.5 6.4-.4 8.2 1.2-.1-.2-7.1-17.5-7.9-19.4zm33-160.9h.1l.6.2c1.1.4 2.1 1.1 3 2 3.3 3.5 8.8 11.9 11.9 20.6 1.7 5.4 3.1 12.9 2.7 19.3 0 0-2 36-5.8 70.5-3.5 31.3-5.4 35.4-5.4 35.4-2.2-2.9-3.2-6.6-3.7-8.6l-.3.3s-2-3.1-3.3-9.3c-1.4-7-1.6-19.6-1.5-25.6 0 0 .1-1.8-1.3-4.8-.6-1.4-1.1-2.9-1.5-4.4v-.1c-2.1-9.6-6.2-12.3-8.5-15.3-2.9-3.8-4.6-6-5.7-8.2-1.7 1.6-3 3.2-3 4.1.6 5.8 1.1 9.9.3 12.9l-1.2-1c.4 3.8-1.4 8.3-.3 11.8l-2.3-.3.3.6 1.1 1 .8.4c.2.1.7.3 2.3.8 1.3-2.9.3-5.7-1-7.2-1.1-1.3.2-3.2 2.5-2.3 2.9 1.3 6 3.1 9.3 6.3 4.7 4.5 6.1 8.9 5.1 9.7l-2.3.2-.1.5-2 1.8-.1.2c-.5.7-1.3 1-2.8 1-1.2 0-2.6-.7-2.8-.9l-.9-.7-1.3 1.1.5.6c.3.3 1.8 2 2.2 4l.1.9c3.9 4.7 8.6 10.4 11.8 16 3.5 6 5.1 11 5.1 11s-1.9.6-4.3 0c.9 2.4 1.3 4.5 1.2 6.1-1.9.1-4.4-.2-6.9-1.5l.4 2.4c3.5 2.3 6.1 4.4 7.5 5.4-11.3 5.3-27.6 2.9-27.9 2.8l-2.5-.4-.5-.1 4.7 11.1c7.2 3.3 13.8 5.4 24.1 3.7 0 0 1.7-.2 6.1-1.6 4.5-1.5 12.9-6.4 19.4-12.5 8-7.5 12.9-15.5 14.5-18.6C204 206.7 206 170.6 206 156v-7.6c-.1-4.9-.4-12.2-.6-15.9-4.3 3.8-9.8 7.8-26.8 17.2l-3 1.7-.1-3.5c0-.3-.2-29.9-15.2-67.2-2.5 2.8-4.9 5.9-7.2 9.1zm-61.9 179c.3-5.7 1.3-13.6 2.4-19.2l-1.2.9-.9.6h-.1-.1l-.4-.5c-1.3 3-7.9 19.2-7.9 19.4 1.9-1.5 4.7-2.6 8.2-1.2zm26.5 4.4c.2-5.1-2.2-20-3.2-26.1l-1.1-.4-1 2.5c-.7 1.5-1.9 3.2-2.1 3.2s-3.3-2.1-5.3-6.2c-2 4.1-5 6.1-5.2 6.1-.3 0-1.4-1.6-2.1-3.2l-1.1-2.6-.1.2c-1 6.3-3.2 21.5-3 26.6-6.8-4.4-10.8 0-9.4 3.1l.4.7c.8 1.1 1.9 1.7 3.4 1.8 2.2.1 5 .4 8.3 1.9 3 1.4 6.2 3.7 9.5 7.8 3.3-4.1 6.5-6.4 9.5-7.8 3.3-1.5 6.2-1.7 8.3-1.9 1.5-.1 2.5-.8 3.3-1.8l.5-.7c1.2-3.2-2.9-7.7-9.6-3.2zm-99.8-42.6c1.7 3.1 6.1 11.3 14.2 18.9 6.1 5.7 13.2 9.8 21.1 12.4l1.8.6c9.1 2.9 19 2.3 28.7-2.6l.1-.3c.7-1.8 4.6-11.1 4.6-11.1l-.5.1c-1.8.3-3.6.6-5.3.7-1.1.1-16.6 2.5-27.8-2.8 1.7-1.2 5.1-4 9.7-6.7l.2-1.4c-2.6 1.4-5 1.6-6.9 1.5-.2-1.6.3-3.7 1.2-6.1-2.5.5-4.3-.1-4.3-.1s1.6-5 5.1-11c2.7-4.7 6.4-9.3 9.8-13.5l-.3-1.5.2-1.6c.4-2.1 2-3.8 2.2-4l.7-.7-1.3-1.1-1.1.8c-1.3.6-2.1.8-2.8.8-1.4.1-2.2-.2-2.8-.9l-.1-.2-2-1.8-.1-.5-2.1-.3c-1-.9.4-5.2 5.1-9.7 3.3-3.2 6.4-5 9.3-6.3 2.2-1 3.6.9 2.5 2.3-1.3 1.6-2.3 4.3-1 7.2 1.4-.5 1.9-.7 2.1-.8l1.9-1.3.2-.5-2 .2c1-2.5-.6-8.6.5-12.5l-1.4.8c-.7-3.6-.6-9.3-.3-12.1-.1-.8-1.2-2.1-2.7-3.6-1.1 2-2.8 4.1-5.3 7.5-2.3 3-6.4 5.7-8.5 15.4l-.3 1.1-.4 1.2-.3.8-.5 1.2c-1.4 3-1.3 4.8-1.3 4.8.2 6.1-.1 18.6-1.5 25.6-1.2 6.2-3.3 9.3-3.3 9.3l-.3-.3c-.5 2.1-1.4 5.8-3.7 8.6 0 0-1.9-4.1-5.5-35.4-3.8-34.5-5.8-70.4-5.8-70.4-.4-6.4.9-13.8 2.7-19.3 3-8.7 8.6-17.1 11.9-20.6.9-.9 2-1.7 3.2-2.1l1.1-.2c-2.4-3.3-4.9-6.5-7.3-9.7C34 116.8 33.8 146.7 33.8 147l-.2 3.6-3-1.7c-17-9.4-22.5-13.4-26.8-17.2-.2 3.7-.6 15.9-.6 15.9v7.6c.2 14.9 2.8 50.8 14.7 75.4z" fill="#e2011f"/><path d="M127.8 124.1c1.5 2-.3 5-1.7 7.2l1.7-7.2zm-41.1-15.6c1.4-4.9 4.1-7.7 5-10.5-4.9 3.5-5.9 8.8-5 10.5zm31 40c3-3.7 4.5-7.9 3.2-12.2-2.6 4.1-2.6 8.3-3.2 12.2zm9.2-32.7c-2.1.5-1.3 8.8-1.4 8.8 0-.1 3.2-5.7 1.4-8.8zm-41.5 14.5c-1.2 4.9 3.7 9.6 3.8 9.7-.1 0-.1-5.8-3.8-9.7zm-.1 7.9c-.2.9.6 3.6 1.5 5.2 1.7 2.8 3 4.1 4.3 5.5-2.1-3.2-3.7-9.1-5.8-10.7zm40-35c-.3 2.5 2.6 8.2 2.7 8.7.1-.4 1.7-5.2-2.7-8.7zm-44.5 11.7c-.4-2.4 2.6-4.6 1.6-8.5-3 3.3-2.4 6.5-1.6 8.5zm8 6.2c-.1 2.1-.1 4-.5 6.3-1.4-.3-2-1.3-3.1-2.1.8 2.8 4.3 5.9 4.8 6.8.5-3.9.7-8.4-1.2-11zM106.2 74c.9.9 3.8 2.1 5.5 3.7-.2-2.5-2.4-3.9-5.5-3.7zm8.9 20.6c0-1.9-.6-5.1-4.8-5.7-.3 2.1 3.4 3.4 4.8 5.7zm-17.8-22l.2 1.6c-.2 1-.6 2-2.1 2.3-1.6.4-3.2-.6-3.3-2.3l.3-1.4-1.1 1.1-1.5.8c0-1 1.1-2.5 2.3-3.1 1.8-.8 7.9-1.1 12.2 1.2-1.5-.3-2.9-.2-4.3-.3-1.7.1-2.7.1-2.7.1zm-.8.1l-1.7.2 1.1.8.6-.3v-.7zm6.1 1.3c1.4 1.7 2.8 3.1 5.2 2.9-1.8-2-4-2.7-5.2-2.9zm22.8 60c-1.9 2.6-2.5 8.5-3.1 10.5.7-.6 4.2-9 3.1-10.5zm-11.6-52c-.1-.6-1.5-2.5-4.4-3.1l1.6 2.6-2.6.5c.9.8 2.9 1 5.4 0zm-.4 18.5c-2 2.1-.1 6.4 1 10.2 1-1.9 2.3-8.2-1-10.2zm10.4 9.7c-1.1 5.2-3.4 7.2-3.4 7.2s-1.8-1.5-3.3-3.5c-.1 4.2 3.5 8.3 3.4 8.2 0 0 4.5-3.5 3.3-11.9zm-5.5-18c-.4 2.4 3.4 5.9 3.4 5.9 0 .1.5-4.4-3.4-5.9zm-7.9-5.6c1 1 4.1 1.7 5.8 3.3-.2-2.6-2.9-4.3-5.8-3.3zm52.7 29.4c-.9 8.8-1.5 10.6-2.4 12.1l-1.4-2.3c-.3 1.6.1 4 1.4 5.3 1.7-2.4 2.9-7.2 2.4-15.1zm-80.6 14c-.7-4.2-.4-6.9-2.4-10.6-.7 4.3 1.9 9.9 2.4 10.6zm65.1 9.5s-1.4-3.3 1.8-13.3c-4.6 10.2-4 13-3 16.5 2-1.5 2.8-2.5 3.2-4.8-.7 1-2 1.6-2 1.6zm-3-8.7s-1.1-2.3 1.7-11c-5.2 8.3-2.9 14.1-2.9 14.1s2.7-1.4 3.4-4.6l-2.2 1.5zm22.4 5.7s2.2-3.7 1.1-9.9c-.3 5.8-1.6 8-1.6 8l-1-1c0 1.8 1.5 2.9 1.5 2.9zm-4.6-5.9c-.1 2 1.6 3.3 1.6 3.3s2.7-4.1 1.6-11.2c-.5 6.6-1.9 8.9-1.9 8.9l-1.3-1zm-1-20.5c-1.3 9.8-2.8 12.1-3.8 13.7l-1.4-3c-.4 1.8 0 4.5 1.3 6 2-2.5 4.2-7.8 3.9-16.7zm-38.8 57.6l-.5-2.1c-.4 1.9-2.9 5.9-2.4 10.6 1.2-4.2 4.4-5 5.2-8.9l2 .7c-.4-1.5-1.5-3.1-1.9-6.3-.4 1.1-.8 4.2-2.4 6zm36.4-61.3c-1.3 8.1-3.4 11.5-4.5 13.2-.9-2.7-.7-5.3-.7-5.3-1.2 3.8-.9 7 .4 8.6 2.2-2.4 5.2-9.7 4.8-16.5zm-7.8 7.6c-.6-2.8-.3-6.9-.3-6.9-1.6 3.7-1.4 8.7-.3 10.5 2.4-2.1 5.6-8.5 5.8-15.3-2 8-4 10.2-5.2 11.7zm-40.5 15.6s3.8-3.5 4.1-10.7c-2.1 3.6-4.4 5.6-4.4 5.5 0 0-2-1.4-3.7-3.4 0 4.7 4 8.7 4 8.6zm-56.2-10c-1.1-1.6-3.3-5-4.5-13.2-.4 6.8 2.7 14.1 4.8 16.4 1.3-1.6 1.7-4.8.4-8.6-.1.1.2 2.7-.7 5.4zm6.8 19.9s-1.3-.6-2-1.7c.4 2.3 1.2 3.3 3.2 4.8 1-3.5 1.6-6.2-3-16.5 3.1 10 1.8 13.4 1.8 13.4zM57.8 114c-1.3-1.5-3.2-3.7-5.3-11.7.2 6.8 3.5 13.1 5.8 15.3 1.1-1.7 1.3-6.8-.3-10.5.1 0 .4 4.1-.2 6.9zm29.7-39.2l.4 1 .9-.9-1.3-.1zm-39.2 53.3c-.9-1.5-1.5-3.3-2.4-12.1-.6 7.9.6 12.8 2.3 15.1 1.3-1.3 1.6-3.7 1.4-5.3l-1.3 2.3zm-5.9 6.5s-1.3-2.2-1.6-8c-1.2 6.2 1.1 9.9 1.1 9.9s1.5-1.1 1.5-2.9l-1 1zm2.9-3s-1.4-2.3-1.9-8.9c-1.1 7.1 1.6 11.2 1.6 11.2s1.7-1.3 1.5-3.3l-1.2 1zm6-7.8c-1-1.7-2.5-3.9-3.8-13.7-.3 9 1.9 14.3 3.9 16.7 1.4-1.5 1.7-4.2 1.3-6l-1.4 3zm37.3 52.1c.6-4.7-1.9-8.7-2.4-10.6l-.5 2.1c-1.7-1.8-2.1-4.9-2.4-6-.4 3.2-1.5 4.8-1.9 6.3l2-.7c.9 3.9 4.1 4.7 5.2 8.9zm-24.2-45.1l-2.2-1.5c.7 3.1 3.4 4.6 3.4 4.6s2.2-5.8-2.9-14.1c2.8 8.7 1.7 11 1.7 11zm46.1 24.1c.9-2 3.1-5.8 2.6-10.1-1.9 1.6-2.8 7.5-2.6 10.1zm-.2 13.3c.9-2.2 2.8-4.3 2.8-11.2-2.2 2-3 8.6-2.8 11.2zm1-32.6c-.8 2.9-2.1 4.8-4.3 7-.9-.8-1.8-1.8-3.1-4.3-.5 4.8 2.3 7.7 3.9 8.7 1-.8 4.2-5.4 3.5-11.4zm-5.1 35.3c1.1-2.8 1-6.3-.2-7.8-.9 3-1 5.6.2 7.8zm-3.1-8.4c1.1-3.2.8-7.1-.6-8.8-.9 3.3-.9 6.3.6 8.8zm92.1 70.2c-6.6 13-14.9 21.2-26.2 28.4-16.5 10.5-33.7 7.9-39.3 4.7l.6 1.4.5 1.3c2.2 6 .7 12.1-7.4 13.1-2.1.2-4.5.3-7.3 1.6-1.9.9-4.1 2.4-6.5 4.9-1 1.1-3.1 3.7-4.1 5.8-1-2.1-3.1-4.8-4.1-5.8-2.4-2.5-4.6-3.9-6.5-4.9-2.8-1.3-5.1-1.4-7.3-1.6-8-.9-9.5-7.1-7.3-13.1l.5-1.3.6-1.5c-4.1 2.4-14.2 4.2-26 1l-1.2-.3c-9.5-2.5-17.9-7.2-25-13.9-8.6-8.1-13.3-16.8-15.1-20.1C-1.6 200 .6 151.8.5 146.7 0 91.1 12.3 59.9 22.9 44.9L17.6 38c-1.1-1.1-2.9-2.7-6.6-3.2-1-7.3-3.8-15.9-3.8-15.9s7.3 5.2 14.1 8.2c-.5 3.7.4 5.9 1.4 7.2.1.2 1.7 2.2 4.2 5.6 4.7-5.8 9.7-10.1 17.5-14.6 1.9-1.1 3.9-2.1 6.1-3.1-.1-3 .9-5.8 2.9-7.8.1-1.7 1.5-3.8 3.2-4.5 1.8-.5 4.5.3 5.8 1.6 2.9.4 5.8 2 7.8 4.3 6.5-1.4 13.8-2.4 22.2-2.9 1-4.1 3.6-7 6.9-8.6.8-1.8 3.3-3.6 5.4-3.7 2.1.1 4.6 1.9 5.4 3.7 3.2 1.6 5.9 4.6 6.9 8.6 8.4.5 15.7 1.5 22.2 2.9 2.1-2.3 4.9-3.9 7.9-4.3 1.3-1.3 4-2.1 5.8-1.6 1.7.7 3.2 2.8 3.3 4.5 1.9 2 3 4.8 2.8 7.8 2.2 1 4.2 2 6.1 3.1 7.8 4.5 13.3 9.4 17.8 14.8l4.6-6.1c.9-1.3 1.9-3.6 1.4-7.2 6.8-2.9 14-8.2 14-8.2s-2.7 8.6-3.7 15.9c-3.8.5-5.6 2.2-6.6 3.2-.1.2-2.4 3.1-5.9 7.8 10.5 15.2 22.6 46.1 22.1 101.3 0 4.3 2.1 53.4-13.6 85.9zm-5-174.6c-6.3 1.4-10.8 1.4-13.2 1.3-1.7 3.6-3.1 7-2.9 13.2-2.5-.7-4.2-1.8-5.6-3.1l-6.2 8.2c13.7 32.8 15.9 60.2 16.2 68.3 22.4-12.7 25.6-16.4 26.6-18-1.6-29-5.7-51.1-14.9-69.9zm-30.4 85.2c-.4 3.2-.4 5.9.4 8.9 1.4-2 2.4-3.9 3.5-7.4 0 2.8.8 5.9 1.3 7.2 1.9-3 3-14.7 3-14.7l1 .7c1-4.2.5-12.9-.4-16.9-1.5-7.2-4.1-15.9-12.4-26.2-4.2-5.3-7.8-2.9-11.4 1.2-5.8 6.7-7 9.7-13.9 11-.7.1-.2.5 1.2.5 8.3-.2 10.9-6 13.4-9 1.6-2 3.8-3.7 5.6-2.6.7.4 2.9 3.2.6 10.2 0-1.6-.5-2.9-.9-3.3-1.1 4.6-2.5 8.3-4.3 11.4l-.5-2.5c-.8 5.6-5.5 11.5-6.2 19.5-.5-.9-.9-1.4-1-3.5-3.6 7-7.2 19.5-5 25.8-.1-6.4 3.6-15.6 5.5-18.5-2.5 8.2-5.3 18.4-2.9 24.5.2-5.2 3-13.8 5-17.3-3.4 13.5-4.8 20.4-1 25.6-.7-5.1 1.3-12.7 3.9-19-1.7 10.5-4.3 19.7.4 24.4-.7-6.9 1.8-16.1 3.1-19.3-1.5 10-2.8 19.6.1 24.6 0-1.6.2-3.4.5-5.4 1.1-8.4 2.8-13.5 2.8-13.5s-1 7.1-1.5 15.8c-.5 8.4.9 12.4 1.8 14 .8-11.5 2.1-21.4 3.5-26 0 0-1.2 10.7-2 27.2-1.2 25.1 1.9 32.9 2.8 35.2 0 0-.2-.4-.3-3.5-.1-2.5-.1-2.4.2-5.3.1-.8-2-5.2-1.7-11 .8-16.5 2.8-32.6 4.6-40.1l-2.9 42.8c.2 4.7 1.5 6.8 1.5 7.5-.2 9.2.6 12.9 2.1 16.4 0 0 .9-3.3 1.6-7.4l-.9.8c-1.1-3-1.6-8.2-.9-13.6.1-1-1.2-2.2-1.1-6.5.3-10.9 3.2-32 4.5-38.2.1.8-2.8 35.6-2.9 37.8-.1 4.6 1.1 5.9 1 6.8-.3 3.3-.2 9.3.3 10.9.4-1.4.7-3.8.7-3.8s2.7-21.2 4.7-45.3l2.6-33.3-.3-.2s-1.1 12.6-4.3 17.1c-.9-.8-1.9-5.6-1.8-7.1-.7 2.5-3.6 5.9-3.6 5.9s-1-2.5-.9-6.6c-1 1.5-1.8 2.6-3.2 3.5-.6-1.4-1.3-3.1-1.2-7.2-.5.8-1.4 1.8-2.9 2.8-.4-1-2.5-4.5 1.3-17.7-1.5 12.2-.6 13.6-.3 14.6l2-1.4c.2-2.2.5-5 1.2-8.6-.6 9.7.1 12.7.9 14.6 1-1.3 2.3-3.1 4-7.3zm-30.9 19.1l.1-.3h.1.1l.9.4.9.5c-.5-1.1-.6-2.8-.7-4.7s-.2-4.1-.8-6.1v.1l-.1-.2-1.7 2.8c-1 1.3-2 2.7-2.3 4.5l-.1.3-.3-.2-1.1-1.2-.3-.4-.1-.1c-.7 2.9-5.6 9-6.8 10.3-.1.2-2 3-2.7 9.9-.7 6.5 0 10.5 0 10.5l1.7-1.9s.1 1.8-.1 3.9c-.2 1.6-.7 2.9-.7 2.9s3.4.6 6.1-2.6l.5 1.3c.4 1.2.8 2.7-.2 3.5-.2.1-1.8 1.5-1.6 3l.9 1.4h.1v.1l1.1 1.4v-1.3l1.5-1.2.7.1h.1v.1s.4 3.9.7 5.5c.3 1.4.7 3.3.9 5.3l.2 1.4c.1 1.3.9 1.5 1.6 1.6h1.7l-.9.8c.1.6.5 1.3.1 2.6l.1.1c1.6-.8 1.6-2.3 1.4-3.5v-.1l.1-.1c1.2-.7.9-3-.8-6.6-.8-1.7-1.1-4.5-.6-4.8h.1c.3 0 .6 0 1.4 1.1l1.8 2.4 1.1 2.3-.2.5-.5.2-1.1-.1 2.2 1.5c1.1-1.2.1.8 2 1 1.2.1 2.1-.8 2.1-2.2l-.2-1.3c-.2-1.4-1.3-2.8-1.8-3.3l-.4-.4c-3.2-3.5-2.9-4.3-2.7-4.6l1.4-.7c1.2 0 2.6.2 2.6.2 1.3.2 3.4.6 3.3 1.3l-.3.4-1.3.3 1.2.8 3.4-.2.2-.4 1.7-.9-1.6-2.1c-.7-.4-2.9-1.2-4.7-1.8l-2.3-.6-3.8-1-2.8-1-.8-.4-1.6-1.4c-.4-.6-.8-2.1-1.3-3.8.5.2 1.6 1 3 1.2l-.1-3.4c.6-6.3.7-9.9.7-9.9l1.3 1.3c.2-1.1-.2-3.7-.4-6.3-.2-2.1-.7-5.1-1.3-7.7zm4.5 29.8l2.9.8 1.4.4c.5-1.4.8-2.9.7-4.3-.1-1.6 3.7 1.8 6.1 4.3l.6-.2c-2.5-3.4-7.4-6.6-8.8-7.5-2.4-1.5-3.6-1.1-2.8.2 1.1 1.5.9 3.8-.1 6.3zm3.2 24.4c2.7 3.2 6.9 9.2 8.5 10.8 3.5 3.5 5 3.9 7.6 4-.8-2.4-1.8-4.6-5.9-10.8-2.1-3.2-5.6-7.8-8.4-11.4l-.2.4-1 1.1-2.1.5-1.9-.9-1.3-.3c.1 1.3-.1 2.3-.7 3 0 .8-.2 2.5-1.4 3.7l.2.3c.9 1.6.5 2.5.1 3l-5.8 6.3c-1.2 1.1-2.4-.2-2.4-.2l-.7-.6-2.1 2.1.3.2c1.4 1.3 3.2 2.3 5 3.1s5.3 2 8.9 3.5c-.8-1.9-1.9-4.8-2.9-8.4 1 1.4 3.9 6.4 5.7 9.5l3.8 1.9 3.6 1.9c-.2-1.6-.5-2.7-.5-2.7s-2.2-2.2-3.8-4.3c-3.1-4.2-5.1-8.6-6-11.6l5.8 8.2c4.4 5.6 9 8.1 10.8 8.1-.6-3.2-1.8-3.9-1.8-3.9s-2.2-1.8-4.6-4.9c-2.1-2.3-4.5-6.3-6.8-11.6zM125.2 247c6.2.8 19.6.6 24.4-1.3-1.8-1.5-9.4-6.4-21.1-11-2.4-1.1-5.5-2.2-7.6-3.7a28.6 28.6 0 0 1-3.5-2.8c-3.8-3.5-14-14.1-15.7-16l-6.7 6.2s17.8 17.4 22.3 19.8c5.7 3.1 22.1 6.8 22.1 6.8s-12.6-.9-22.1-4.8c-5.7-2.3-23.9-20.3-23.9-20.3L89 224c2.3 2.5 7.1 8 15.1 14.4 5.3 4.5 12 7.5 21.1 8.6zm-15.6-2c-1.1-.6-2.2-1.2-3.3-1.9l1 2c.7 1.5 1.6 2.7 2.4 3.6l.3-.5 1-2.5-1.4-.7zm-32.3-24.3c-1 2.9-2.9 7.3-6.1 11.6-1.5 2.1-3.7 4.3-3.7 4.3s-.2.7-.4 1.8l1.3-.7c2-1.1 4.3-2.1 6.6-3.1l5.5-9c-.9 3.2-2 5.9-2.9 7.9l6.9-2.7c2.1-.9 3.1-1.8 3.9-2.4l.8-.8-2.2-2.2-.7.6s-1.3 1.2-2.4.2l-5.8-6.3c-.4-.5-.9-1.4.1-3l.1-.1c-1.4-1.3-1.6-3-1.6-3.8-.6-.7-.9-1.7-.7-3l-1.4.3-1.8.9h-.3l-2-.6c-2.5 3.3-5.3 7-7.1 9.7-4 6.2-5 8.4-5.8 10.8 2.7-.2 4.2-.6 7.6-4 1.6-1.6 5.8-7.6 8.5-10.8-2.2 5.3-4.7 9.3-6.7 11.9-2.4 3.1-4.6 4.9-4.6 4.9s-1.2.7-1.8 3.8c1.8 0 6.5-2.5 10.9-8.1 1.5-1.7 2.4-3.1 5.8-8.1zm-4.3-18l-.4.4c-.5.5-1.6 1.9-1.8 3.3l-.2 1.3c.1 1.5.9 2.3 2.1 2.2 1.9-.2.9-2.2 2-1l2.2-1.5-1.1.1-.5-.2-.2-.5 1.1-2.3 1.8-2.4c.8-1.1 1.1-1.2 1.4-1.1h.1c.4.3.2 3.1-.6 4.8-1.7 3.6-2 5.9-.8 6.6l.1.1v.1c-.2 1.3-.2 2.7 1.4 3.5l.1-.1c-.4-1.3 0-2 .1-2.6l-.9-.8h-.1 1.7c.7-.1 1.5-.2 1.6-1.6l.1-1.4c.2-2 .6-3.9.9-5.3.4-1.6.7-5.5.7-5.5v-.1h.1l.7-.1 1.5 1.2.1 1.3 1.1-1.4v-.1h.1l.9-1.4c.2-1.4-1.4-2.9-1.6-3-1-.8-.7-2.2-.2-3.5l.6-1.5 1.9 1.6c2.3 1.6 4.6 1.2 4.6 1.2s-.5-1.3-.7-2.9c-.2-2.1-.1-3.9-.1-3.9l1.7 1.9s1-3.4.4-9.9c-.8-7.5-2.4-10.4-2.7-11.5-.5-1.7-1.5-3.4-1.5-3.4s-.1.9-1.4 1.9c-1.4-1.8-4-5.4-4.7-7.8l-1.4 1.8-.3.2v-.3c-.3-1.8-1.3-3.2-2.3-4.5l-1.7-2.8c-.6 1.9-.7 4.1-.8 6.1-.1 1.9-.2 3.6-.7 4.7l.9-.5.9-.4h.1l.1.1.1.3c-.6 2.5-1.1 5.5-1.2 7.3-.2 2.6 0 4.9.2 6l1.9-1.1s-1.2 3.8-.6 10l-.1 3.4c1.2-.2 2.2-.7 2.7-1.1-.5 1.7-.9 3.2-1.3 3.8l-1.6 1.4-.8.4-2.8 1-3.8 1-2.1.5c-1.4.3-4.1 1.5-4.8 1.8l-1.6 2.1 1.7.9.2.4 3.4.2 1.2-.8-1.3-.3-.3-.4c-.1-.7 2-1 3.3-1.3.1 0 1.4-.2 2.6-.2l1.4.7c.1.6.4 1.4-2.8 4.9zm1.6-16.9c.8-1.3-.4-1.6-2.8-.2-1.4.9-6.3 4.1-8.8 7.5l.6.2c2.5-2.5 6.2-5.9 6.1-4.3-.1 1.4.2 2.9.7 4.3l1.1-.3 3.2-.8c-.9-2.5-1.1-4.9-.1-6.4zm-5-50.8c1.9 2.9 5.6 12.1 5.5 18.5 2.3-6.3-1.4-18.8-5-25.8 0 2.1-.5 2.6-.9 3.5-.7-8-5.4-13.8-6.2-19.5l-.5 2.5c-1.7-3.1-3.2-6.8-4.3-11.4-.3.4-.9 1.7-.9 3.3-2.4-6.9-.1-9.7.6-10.2 1.8-1.1 3.9.7 5.6 2.6 2.5 3 5.1 8.8 13.4 9 1.4 0 1.9-.3 1.2-.5-6.9-1.3-8.2-4.3-13.9-11-3.6-4.2-7.2-6.5-11.4-1.2-8.3 10.3-10.9 19-12.4 26.2-.8 4.1-1.4 12.7-.4 16.9l1-.7s1.1 11.8 3 14.7c.5-1.3 1.3-4.4 1.3-7.2 1 3.5 2 5.4 3.4 7.3.8-2.9.8-5.7.4-8.9 1.7 4.2 2.9 6 3.8 6.7.7-1.9 1.4-4.9.9-14.6.6 3.6 1 6.4 1.1 8.6l2 1.4c.3-1 1.2-2.4-.3-14.6 3.8 13.2 1.7 16.8 1.3 17.7-1.5-.9-2.4-2-2.9-2.8.1 4.1-.6 5.8-1.2 7.2-1.5-.8-2.3-2-3.3-3.5.1 4.1-.9 6.6-.9 6.6s-2.9-3.4-3.6-5.9c.1 1.6-1 6.3-1.8 7.1-3.2-4.4-4.3-17.1-4.3-17.1l-.3.2c.4 6.6 1.6 21.4 2.6 33.3a1168.92 1168.92 0 0 0 4.7 45.3s.2 2.5.7 3.8c.4-1.5.6-7.6.3-10.9-.1-.8 1.1-2.2 1-6.8 0-2.3-3-37-2.9-37.8 1.3 6.2 4.3 27.3 4.5 38.2.1 4.3-1.3 5.6-1.1 6.5.7 5.4.2 10.6-.9 13.6l-.9-.8a87.11 87.11 0 0 0 1.6 7.4c1.5-3.5 2.4-7.2 2.1-16.4 0-.7 1.3-2.8 1.5-7.5.2-4.5-2.7-39.8-2.9-42.8 1.8 7.5 3.8 23.7 4.6 40.1.3 5.9-1.8 10.2-1.7 11 .3 2.9.3 2.7.2 5.3-.1 3-.3 3.5-.3 3.5 1-2.3 4.1-10.2 2.8-35.2-.8-16.5-2-27.2-2-27.2 1.4 4.6 2.7 14.5 3.5 26 .9-1.7 2.4-5.6 1.8-14-.5-8.6-1.5-15.8-1.5-15.8s1.7 5.2 2.8 13.5c.3 2 .4 3.8.5 5.4 2.8-5 1.5-14.6 0-24.6 1.3 3.2 3.8 12.4 3.1 19.3 4.6-4.6 2.1-13.8.4-24.4 2.6 6.3 4.6 13.9 3.9 19 3.7-5.2 2.4-12.1-1-25.6 2 3.6 4.8 12.1 5 17.3 2.9-5.5 0-15.6-2.4-23.8zm90.9-65.4c-16.5-16.3-40.1-17.4-46.2-16.9-1.4.1-3.1 1.3-1.3 3.6-1.3.6-6.4.2-8.2-1.6-1.9 1.8-6.9 2.2-8.3 1.6 1.8-2.4.2-3.5-1.3-3.6-6.2-.4-31 2-46 16.6l25.9 34.2 2.2 1h.4l2.6-1.7c1.8-1.9 2.7-3 4.5-4.8 3.4-3.5 6.6-6.1 7.1-6.6 1.4-1.3 1.9-2.4 1.9-3.5-.1-1.2-1.1-1.7-1.7-2.5l-.3.5-1.2-2.4-.3.9s-1.2-3.1-3.3-2.8c-2.8.4-4.5-.8-4.8-.9-.2 0-.3.9-.2 2l-.1-.1c-1.9-1.6-2.5-5.8 1.2-8.4 2.2-1.7 2.6-1.6 4.4-2.4l1.5-1.3c1.2-1.4 3.5-2.2 4.8-2.6 1.7-.4 5.7-1 9.7-.8 2.2.1 4.4.6 5.9 1.3 1.2.5 4.6 3 6.5 5.5 1.2 1.6 3.4 6.3 4.6 9.2l3.9 9.6c2 4.7 3.1 7.2 5 9.9.6.9 1.3 1.3 2.6 1.3l2.7-.6 1.1-1.1c5.8-8.4 16.6-21.9 24.7-32.6zM115 167.5s2.2-2.1 3-9l1.4 2c1.4-1.7 4.2-10.9 4.5-14l1.1.7c.7-1.4 2.3-6.6 3-13.9l1.2.4c.5-3.3 1-8.7 1.1-12.4.1-3.2 0-9.8-1.3-13.6-1.4-3.8-2-5.8-4.2-9.3l-1.2.9c-.6-1.8-2.3-6.3-3.1-7.9-2.1-4.1-3.1-6.7-5.3-8.1 1 0 1.4.3 2.6.2-1.4-1.3-1.9-2.2-3.5-3.5.5-.4 1.4-.3 2.9 0-2.1-2-2.9-4.9-8.4-7 1-.2 1.7.1 3 .1-.7-1.1-2.4-2.9-5.1-3.7-5.6-1.1-13.4-1.3-17.1 3l-2.1.8-1.1.5c-.6.4-.7 1.1.5 2.8-1.6-.2-2-1.8-2.3-1.6l-1.7 1.7-.9 3.2c.2.2 1.5.8 1.8-.8l3.4-.8c1.2 0 2.4.3 3.9.2l-2.9.9-.1 1 1.7-.4.3 1.4c4.6-1 4.9 3.8 9.7 2.9-2.3-1.8-4.2-4.8-6-5.7 4.8.8 7.4 5.1 12.5 5.3l-.6-1.4c1.8 0 3 1.4 3.6 1.3-.7.7-2.2 1.3-4.1 1.5l2.9.9c-1.1 1-2.3 1.4-4.6 1-.8.7-1.8 2.3-5.2 4.4l.2-1.6c-2.2 1.3-3.7 3.6-5.4 4.3l1.3-3c-5.8 5.3-11.4 10.3-13.5 14.1-2.3 4.3-3.1 8.7-2.8 15.9.2 3.9 1.9 14.9 2.2 17.1l1.2-.5c1.4 8.1 5.6 19.4 7.8 23.1l1.3-1.7a10.54 10.54 0 0 0 3.3 6.2c0-1.4.6-2.3.7-2.8.5 1.6.2 6.4 3 9.1-.1-1.3.3-2.5.7-4.3.5 1.5.6 3.5 1.3 5.1.9 1.8 2 3.7 3 4.2-.1-3.8.5-3.6.6-5.2.1.3 1.5 1.7 2.2 6.5 2.8-2.2 3.9-9.3 3.9-9.3s.8.7 1.4 2.7c2.5-2.6 3.2-6 3.9-8.5.6 2 .6 3.7.4 4.6zm2.9 37.7c3.4 0 4.3 0 5.6-.2l-.2-1.1-.1-.8h-.1c-1.2.3-3.4 1-6.4.4-1.4-.3-1.5-.3-2.7-.7-1-.3-2.6 1.4-3.9 2.7l-3.2 3.5v.4c1.1 1.1 15.2 13.9 16.1 14.7l.7-.1 2.5-2.5-14.2-13.2-.1-.6.8-.9.6.1 4.6 4.3 6 5.3 3.8 3.3.6-.6c.6-.6.4-1-1.5-2.9l-9.7-9.7c-1-1-.3-1.4.8-1.4zm-21.7 3l-14.1 13.3 2.5 2.5h.7l16.1-14.7v-.3c-.7-.7-2.1-2.3-3.2-3.5-1.3-1.3-2.9-3-3.9-2.7-1.1.3-1.2.3-2.6.7-3 .5-5.2-.1-6.4-.4l-.3-.1-.1 1-.2.9c1.5.3 2.2.2 5.8.3 1.1 0 1.8.4.8 1.4l-9.7 9.7c-1.9 1.8-2 2.3-1.5 2.9l.6.6 3.7-3.3 6-5.3 4.5-4.3.6-.1.8.9-.1.5zm1.4-32.8l-.5-1.9-1.6-1.8-.5-.7.3 2.3 1.2 1.6 1.1.5zm-.2 26.7l1.2 1.2c.2-1.4.9-6.2.6-6.7-1.5 3.1-1.7 5.2-1.8 5.5zm-5.5-.4l2.6-1 .5-.1a88.8 88.8 0 0 1 1.5-4.7l-4.6 5.8zm10.3 5.1c-.1-1.9-.1-4-.3-4.8-.6.8-1 2.1-1.2 3.3l1.5 1.5zm.9-12.5s-.3-2.4-2.2-3.2c.1 1.7 2.2 3.2 2.2 3.2zm1.4-4l1.3-1.4 5.3-3.9 1.1-2.5s-.7 1.1-2.3 2c-1.3.7-4.4 2.7-4.9 3.6l-.4 1.2-.3-.9c-.9-2-3.8-2.8-5.5-4.8-1.1-1.3-1.1-1.8-1.1-1.8 0 1.3.2 2.3.7 3.1.5.7 1.9 1.9 3.8 3.1 1.9 1.4 2.3 2.3 2.3 2.3zm-1.8-7.1c0-3.1-3.4-3.5-4.2-6.6-.4 4.4 2.6 4.5 4.2 6.6zm1.6 12.4l1.4-.8 2.1-1.9.3-2.2s-.2.8-1.3 1.9l-1.6 1.6-.9 1.4zm3 1.9c.3 1.9.6 6.2.6 7.6l1.6-1.6c-.2-.7-.8-4.1-2.2-6zm-2.8 11.3l1.7-1.9.1-.1c-.3-2.4-.9-5.4-1.7-6.5-.2 1.1-.2 5.3-.1 8.5zm0 1.3l.1 2.3 1.1-1.2-1.2-1.1zm.7 3.7c1.9 2.1 4.6 4.8 6.3 6.5l1.8-1.8-6.7-6.2-1.4 1.5zm8 8.1l4.4 4.3 1.9-2.1-4.4-4.1c-.1.1-.8.7-1.9 1.9zm1.2-20.8c-.7-.9-2.5-3.4-4.2-4.8 1.1 2.6 1.6 4.2 1.8 4.9l.3-.1.8-.2.9.2h.4zm-1.6-25.4c-.9 1.4-1.6 2.2-2.7 3.2l.4-2.2-2.6 3.4c-2 2-2.4 3.9-2.4 3.9s.5-.7 2.9-2.1c2.7-1.5 3.6-3.7 4.4-6.2zm-31.3-27.1c0 2.4 1.7 5.8 4 7.2-1.4-3.8-2.5-5-4-7.2zM161.7 68l1.7-2.2c-7.5-6.7-18.7-13.4-31-16.1-8.3-1.8-14.9-2-19.1-1.9-3.4 0-5.6 1.4-5.6 3.5-2.1-.4-2.7-3.1-3-3.6-.2 1.1-1.3 3.3-2.9 3.6 0-2.1-2.2-3.5-5.6-3.5-4.2-.1-10.8.1-19.1 1.9-12.5 2.7-23.3 8.9-30.8 15.6l1.7 2.2c6.8-6.4 15.8-11.4 25.4-14.2 8-2.3 17.8-3.2 22.3-3 4 .2 4.6 2.5 4.1 3.7 1.8.2 4.5-1.4 5-2.4.4.8 2.9 2.6 5 2.4-.5-1.2.1-3.5 4.1-3.7 4.5-.2 14.3.6 22.2 3 9.4 2.8 18.8 8.5 25.6 14.7zm4.5-8.1c.8 2.9 1.7 6.2 4.2 8.2l1.1.7v.1c0-5.6 1.9-8.7 3.3-12 2.1.3 4.8 1.1 10.4 0-5.3-3.6-4.2-7.6-8.1-12l-1.5-1.4c-1.4-1-2.5-1.3-3.2-1.4l-1.8.8c-.5.6-6 6.5-9.7 10.6 3.5-.1 4.3 2.9 5.3 6.4zm3.6-19.7c-3.7-3.7-9.6-7.7-16.6-10.8-18.4-8.1-41.8-8.1-48.5-8.1s-30.1 0-48.5 8.1c-7.1 3.1-12.9 7.1-16.6 10.8l10.5 11.9c1.1 1.3 1.5 2.5.8 4.4 12.8-8.6 27.3-12.9 53.3-13h1.2c25.5.2 40.5 4.6 53.1 13-.6-2-.3-3.1.8-4.4l10.5-11.9zM38.6 43c-.5-.6-1.8-1.7-5 .6-5.7 4.9-3.9 9.4-9.7 13.4 2.1.4 3.8.5 5.2.5l2.5-.1 2.8-.4c1.5 3.3 3.3 6.3 3.3 11.9 6.9-3.6 4.1-15.4 10.5-15.2L38.6 43zm4.5 23.6l9.6 12.8c1.8 2.4 7.8 9.6 7.8 8.7 0-.6-3.7-5.7-6.1-8.9L44 65.2l-.9 1.4zm25.7 44.5c0 4.7.9 8.2 2.4 14 .1-6.1-1-12.3-2.4-14zm-3.2-5.4c-.3 2.2-.3 4.9.2 7 .3 1.4 1 2.8 1.5 4 .2-4.2-.8-8.8-1.7-11zm11.8 41.5c.8-2.6 1.7-19.4-4.5-26.6 1.5 6.6 3.6 14.1 4.5 26.6zm-18.8 98.6c4.8 1.9 18.2 2.1 24.4 1.3 8-1 14.1-3.4 19.2-7-1.3-1.1-3-2.7-4.6-4.3-2.7 2.2-5.1 3.9-6.6 4.5-9.6 3.9-22.1 4.8-22.1 4.8s16.4-3.7 22.1-6.8c1.1-.6 2.9-2 5.1-3.9l-5.8-5.6c-1 1-1.9 1.6-3 2.4-2.1 1.5-5.2 2.6-7.6 3.6-11.6 4.7-19.2 9.6-21.1 11zm40.1-.8l.6 1.7.8 1.8c.8-.8 1.7-2 2.4-3.5l1.7-3.4-.1-.1-1.5 1.1-2.2 1.4-1.6.9-.1.1zm32.6-97.8c.9-12.5 2.9-20.1 4.5-26.6-6.2 7.3-5.3 24-4.5 26.6zm1.5-27.8c2-5.9.3-8.9-.8-9.5-.1 2.7.6 4 .8 9.5zm5 5.9c1.5-5.8 2.4-9.3 2.4-14-1.4 1.7-2.6 7.9-2.4 14zm3.9-8.3c.5-1.3 1.2-2.6 1.5-4 .5-2.1.5-4.8.2-7-.9 2.1-1.9 6.7-1.7 11zm15.8-38c.7-1 4.2-5.6 8.9-11.9l-.9-1.2-9.7 13c-2.3 3.2-6 8.3-6.1 8.8 0 1 6-6.3 7.8-8.7zm27.1-31l-1.7 2.2c1.5 2.6 3 5.4 7.2 7.6-1.7-3.4-3.5-6.6-5.5-9.8zm-3.9-2.3l.8 1.4 18.3-24.3s-3.7 2.6-9 5.1c.5 2.9-1.3 6.5-2 7.3-.3.3-3.4 4.4-8.1 10.5zm-123-33.2c-.8.4-1.6 1.6-1.6 2.9-1.9 1.9-3 4.7-1.9 7.9-10 4.1-18.9 10.5-25.6 18.8L30 44c7.1-9.1 16.6-15.6 28.1-20-.9-1.3-2.2-4.3 1.2-7.6 5 .6 6.2 3.6 6.5 5.2 8.9-2.4 19.5-3.9 31.3-4.3.4-8.1 6.2-10.1 6.2-10.1s.1-1.5 1.4-2.1c1.2.5 1.4 2.1 1.4 2.1s5.8 2 6.2 10.1c11.8.4 22.4 1.9 31.3 4.3.3-1.5 1.5-4.5 6.5-5.2 3.3 3.3 2.1 6.3 1.1 7.6 11.5 4.3 21.3 11.1 28.4 20.2l1.5-1.9c-6.7-8.2-16-14.9-25.9-19 1.1-3.2 0-6-1.9-7.9 0-1.3-.7-2.5-1.6-2.9l-3.3 1.3c-2.9.4-5.7 1.9-7.3 5-7.4-1.8-15.7-3-26.4-3.5-.3-4.9-3.1-7.9-6.6-9.6-.7-1.7-2.2-2.7-3.5-3-1.3.3-2.8 1.3-3.5 3-3.5 1.7-6.4 4.8-6.6 9.6-10.6.6-19 1.7-26.4 3.5-1.5-3-4.3-4.5-7.2-5l-3.2-1.3zM28 46.6l.8-1.3-7.5-9.8c-.7-.9-2.5-4.5-2-7.3-5.3-2.5-9-5.1-9-5.1L28 46.6zm-8.9 11.3c.8-.5 3.5-2.2 5.2-4.6a17.64 17.64 0 0 0 2-3.4l-1.8-2.3c-1.9 3.3-3.7 6.8-5.4 10.3zM4.2 127.6c1.1 1.6 4.3 5.3 26.6 18 .3-8.1 2.4-35.7 16.3-68.7-2-2.6-3.9-5.2-5.8-7.8-1.4 1.5-3.3 2.5-6 3.3.1-6.2-1.2-9.5-3-13.2-2.5.1-6.7.2-13.3-1.2-8.8 18.9-13.2 40.8-14.8 69.6zm79.5 132.3l.1-.3c.7-1.8 4.6-11.1 4.6-11.1l-.5.1c-1.8.3-3.6.6-5.3.7-1 .1-16.6 2.5-27.8-2.8 1.7-1.2 5.1-4 9.7-6.7l.2-1.4c-2.6 1.4-5 1.6-6.9 1.6-.2-1.6.3-3.7 1.2-6.1-2.5.5-4.3 0-4.3 0s1.6-5 5.1-11c2.7-4.7 6.4-9.4 9.8-13.5l-.4-1.6.2-1.6c.4-2.1 2-3.9 2.2-4l.7-.7-1.3-1.1-1.1.8c-1.3.6-2.1.8-2.8.9-1.4 0-2.3-.2-2.8-1l-.1-.2-2.1-1.8-.1-.5-2.1-.3c-1-.9.4-5.2 5.1-9.7 3.3-3.2 6.5-5 9.4-6.3 2.2-1 3.6.9 2.5 2.3-1.3 1.6-2.3 4.3-1 7.3 1.4-.5 1.9-.7 2.1-.8l1.9-1.3.2-.5-2 .2c1-2.5-.6-8.6.5-12.5l-1.4.8c-.7-3.6-.6-9.3-.3-12.1 0-.8-1.2-2.1-2.6-3.6-1.1 2-2.8 4.2-5.3 7.5-2.3 3-6.4 5.7-8.5 15.3v.1l-.3 1.1-.4 1.2-.3.8-.5 1.2c-1.4 3.1-1.3 4.8-1.3 4.8.2 6.1-.1 18.6-1.5 25.6C55 225.9 53 229 53 229l-.4-.3c-.5 2.1-1.4 5.7-3.7 8.7 0 0-1.9-4.1-5.4-35.4-3.9-34.5-5.8-70.4-5.8-70.4-.4-6.4.9-13.8 2.7-19.3 3-8.8 8.6-17.1 11.9-20.6.9-.9 2-1.7 3.2-2.1l1.1-.2-7.3-9.7c-15.2 37.5-15.4 67.3-15.4 67.6l-.1 3.6-3-1.7C13.8 139.8 8.3 135.8 4 132c-.2 3.7-.5 15.9-.5 15.9v7.6c0 14.6 2.6 50.5 14.5 75.1 1.7 3.1 6.1 11.3 14.2 18.8 6.1 5.7 13.2 9.8 21.1 12.4l1.8.6c9 2.9 18.9 2.3 28.6-2.5zm-.6 10.1c1.8-1.5 4.6-2.6 8.2-1.2.3-5.7 1.3-13.6 2.4-19.2l-1.2.9-.9.6h-.1-.1l-.4-.5c-1.3 3-7.9 19.3-7.9 19.4zm34.5 3.1c.2-5.1-2.2-20-3.2-26.1l-1.1-.4-1 2.5c-.7 1.5-1.9 3.2-2.1 3.2s-3.3-2.1-5.3-6.2c-2 4.1-5 6.1-5.2 6.1-.3 0-1.4-1.6-2.2-3.2l-1.1-2.6-.1.2c-1 6.3-3.2 21.5-3 26.5-6.7-4.4-10.8 0-9.4 3.1l.4.7c.8 1.1 1.9 1.7 3.4 1.8 2.2.1 5.1.4 8.3 1.9 3 1.4 6.2 3.7 9.5 7.8 3.3-4.1 6.5-6.4 9.5-7.8 3.3-1.5 6.1-1.8 8.3-1.9 1.5-.1 2.5-.8 3.3-1.8l.5-.7c1.4-3.1-2.7-7.5-9.5-3.1zM128 270c0-.1-7.1-17.4-7.9-19.3l-.3.4h-.1-.1c-.3-.2-1.4-.8-2.6-1.9 1.3 5 2.5 13.1 2.8 19.6 3.6-1.4 6.4-.3 8.2 1.2zm77.9-121.8l-.5-15.9c-4.4 3.8-9.8 7.8-26.9 17.2l-3 1.7-.1-3.6c0-.3-.2-29.9-15.2-67.2l-7 9.4.1.1.6.2c1.2.4 2.1 1.1 3 2 3.4 3.5 8.8 11.9 11.9 20.6 1.7 5.4 3.1 12.9 2.7 19.3 0 0-2 36-5.8 70.4-3.5 31.3-5.4 35.4-5.4 35.4-2.2-2.9-3.2-6.5-3.7-8.6l-.3.3s-2.1-3.1-3.3-9.3c-1.4-7-1.6-19.6-1.5-25.6 0 0 .1-1.8-1.3-4.8a17.61 17.61 0 0 1-1.5-4.4v-.1c-2.1-9.6-6.3-12.4-8.5-15.3-2.9-3.8-4.6-6-5.7-8.2-1.7 1.6-3 3.2-3 4.1.6 5.8 1.1 9.9.2 12.9l-1.2-1c.4 3.9-1.4 8.3-.3 11.8l-2.3-.3.3.6 1.1 1 .8.4c.2.1.8.3 2.3.8 1.3-2.9.3-5.7-1-7.2-1.1-1.3.2-3.2 2.5-2.2a32.62 32.62 0 0 1 9.3 6.2c4.7 4.5 6.1 8.8 5.1 9.7l-2.3.2-.1.5-2 1.8-.1.2c-.5.7-1.3 1-2.8 1-1.2 0-2.6-.7-2.8-.9l-.9-.7-1.3 1.1.5.6c.3.3 1.8 2 2.2 4l.1.9c3.9 4.7 8.5 10.4 11.8 16 3.5 6 5.1 10.9 5.1 10.9s-1.9.6-4.3 0c.9 2.4 1.3 4.5 1.2 6.1-1.9.1-4.4-.1-7-1.5l.4 2.4c3.5 2.3 6.1 4.4 7.5 5.4-11.3 5.3-27.6 2.9-27.9 2.8l-2.5-.4-.5-.1 4.7 11.1c7.2 3.3 13.8 5.4 24.1 3.7 0 0 1.7-.2 6.1-1.6 4.5-1.5 12.9-6.4 19.3-12.5 8.1-7.5 12.9-15.5 14.5-18.6 12.4-24.4 14.5-60.5 14.5-75.1l.1-7.7zm-89.6-10c0-.1 5-4.8 4.8-10.9-1.4 4.1-4.8 5.8-4.8 5.8s-1.9-1.2-2.7-3.8c-.7 6.1 2.7 8.9 2.7 8.9zm-10.1-39.5c-3 3.2-1.2 5.9-1.2 5.9s3.7-3.9 1.2-5.9zm-1.1 11.1c-3.3 5 0 10.2 0 10.2 0-.1 2.3-7 0-10.2zm-8-7.2c-4.9 3.7-2.6 7.1-1.7 9 1-3.6 1.4-4.6 1.7-9zm1.2 45.4c-.6-.2-3.6-2.9-4.5-4.6.5 2.7 4.2 8.1 6 9.2.6-1 2.8-5.4.9-12.3-.8 4.2-1.6 6.3-2.4 7.7zm-3.6-34.2c-3.3 4.1 1.8 9.2 1.8 9.3-.1 0 .4-7.8-1.8-9.3zm5.3 21.8c.8-1.8 3.2-5.3 2-11.1-.4 4.4-3.2 6.3-3.2 6.3s-1.6-.9-2.8-3.5c.3 5.3 2.3 6.8 4 8.3zm-2.6 27.5c-.5-1.6-1.3-6.9-3.3-9.2-.8 3.9 1.7 7.5 3.3 9.2zm61.2-127.4c-1.5-.4-3-.8-3.5-1.6l2 .6.9-.8c-1.5-1.3-4-.5-4.5.8l1.4.8-1.9.9c2.4-.2 4.6.4 5.6-.7zm-4.1 2c-1.7.8-2 1.3-2.9 3.1-1 2.3-1.8 4.5-2.9 6.5l2.2-.7c2.9-1.8 5-6.8 6.2-9.7l-2.6.8zm-5.2 1.8c-.5 1.6-1.7 2.6-2.4 3.6-4.1-1.6-13.2-3.9-18.2-4.4-1.3 1.5-3.4 3.5-5.5 4-3.1-.4-5.1-1.2-7.3-2.1 1.2.1 1.6.1 2.4 0 3.1-.1 5.8-1.1 7.8-2.3-4.3-.7-5.4-1.8-3.3-4.6 1-1.2 2.5-3.5 4.9-2.9 1.8.5 2.3 3 2 5 5.1.6 11.5 2.3 16.5 4.1.3-1.4-.6-2.1-1.2-3.1l2.7-2.3c1.3.6 2.1 3.5 1.6 5zm-23.9-6.4l-1.3 1.4c.4.6 1.2.9 2.3 1l.6.1c.5-1.3-.6-2.9-1.6-2.5zm6.7 7.2l-2.7 1.5 2.1 2.1c1.1-.6 1.6-.9 2.8-1.5l-2.2-2.1zM113 24.8l-2.5-1.8-2.4 1.9 2.4 1.8c.9-.8 1.3-1.1 2.5-1.9zM71.2 43.4l2.8 1.2 2-2.3c-1.1-.5-1.8-.8-2.9-1.2l-1.9 2.3zm45.7-6.5c-12-.7-35.5.6-47 3.8l-2.3-4.1c-3.1-3.3-4.3.3-4.3.7 3.9.2 4.5 2.2 4.5 2.2-.9 1.7-1.6 2.2-3.7 3.7-.7.5-3.2 2-6.6 2.3-7.3.4-5.3-7.2-.9-10.3-.6.7-3.1 4.7-1.5 6.7 1.8 2.3 8.5.4 10.1-1.6-.9-.8-2.5-1.1-4.9-.9.1-1.2.6-4.3 4.1-7.2 1.3.3 4.8 2.2 6.1 5.2 10.6-2.9 30-3.7 31-3.7l-.9-9.2c-.1-1.1.7-1.7 1.4-2.1.8 1.4 1.6 2.1 3.4 2.7l-2.2 1.8.3 4.9c1.7-.7 4.2-1.8 7.1-2.5l3.2-.3 2.8 1.2 1.2 2.2c-.2 1.8-.5 3.3-.9 4.5zm-2.5-4.6c-1.5-2.4-7.1-.2-10.6 1.2 2 0 3.8-.1 6 0 .9 0 3.2 0 4.7.1l-.1-1.3zm-50.1 13l-2.2-.6-1.5 2.5c1.1.3 1.8.6 3 .9l1.1-1.7 2.1.7 1.6-2.5c-1.1-.4-1.9-.6-3.1-.9l-1 1.6z" fill="#040002"/></svg>