<svg xmlns="http://www.w3.org/2000/svg" viewBox="0 0 316.48 463.03" fill-rule="evenodd"><path d="M257.49 77.33c-24.97-39.38-59.61-63.82-98.42-64.09-77.62.4-138.71 97.96-138.71 217.36 0 59.63 15.3 113.91 40.28 153.27s59.62 63.82 98.43 63.97c38.81-.15 73.45-24.61 98.42-63.97 24.98-39.36 40.29-93.65 40.29-153.27s-15.31-113.92-40.29-153.28z" fill="#121822"/><path d="M282.68,147.5c-6.85-25.64-16.79-48.66-29.01-67.87-12.35-19.24-26.85-34.8-42.83-45.53-15.98-10.58-33.37-16.47-51.77-16.47s-35.79,5.89-51.77,16.47c-15.98,10.73-30.48,26.29-42.83,45.53-12.22,19.21-22.16,42.23-29.01,67.87-6.85,25.5-10.61,53.62-10.61,83.18,0,58.85,15.19,112.34,39.62,150.79,12.35,19.23,26.85,34.78,42.83,45.51,15.98,10.6,33.37,16.47,51.77,16.47s35.79-5.87,51.77-16.47c15.98-10.73,30.48-26.28,42.83-45.51,24.44-38.45,39.62-91.94,39.62-150.79,0-29.56-3.76-57.68-10.61-83.18Z" fill="#e01e2d"/><path d="M159.07 431.3c-68.62-.41-122.26-90.63-122.26-200.62S90.45 30.31 159.07 29.93c68.62.39 122.26 90.63 122.26 200.75S227.68 430.9 159.07 431.3z" fill="#121822"/><path d="M159.07 112.58c46.06 0 86 24.98 106.55 61.72-5.51-29.93-15.04-56.76-27.8-78.47-20.27-34.4-48.13-55.3-78.74-55.44-30.62.14-58.48 21.04-78.74 55.44-12.76 21.71-22.3 48.54-27.8 78.47 20.55-36.74 60.49-61.72 106.55-61.72zm0 236.06c-46.06 0-85.87-24.97-106.41-61.72 5.37 29.94 14.9 56.75 27.67 78.35 10.2 17.12 22.15 31.12 35.58 40.66 13.29 9.67 27.86 14.91 43.17 14.91s29.87-5.24 43.17-14.91c13.43-9.54 25.38-23.54 35.58-40.66 12.76-21.6 22.3-48.4 27.67-78.35-20.54 36.75-60.35 61.72-106.41 61.72z" fill="#fff"/><path d="M199.29 349.65c-7.5 2.51-11.7 8.22-8.75 16.57 1.99 5.68 7.96 9.16 15.31 6.72 2.56-.89 5.36-2.43 6.25-5.33l.15.08c2.46 7.17 0 10.1-2.97 11.58-2.93 1.38-5.63.67-7.38-1.38l-.02-.03-4.94 3.33c2.86 4.18 8.23 5.45 14.15 3.46 6.93-2.32 12.42-8.92 7.8-22.03-1.67-4.8-6.34-17.41-19.61-12.97zm6.29 17.41c-2.86.94-6.71.96-8.5-4.12-1.7-4.85 2.14-7.14 4.06-7.73 3.91-1.29 6.61.44 7.99 4.27 1.41 4.05-.93 6.69-3.56 7.59zM161.21 103.8c7.84 0 14.92-3.27 19.81-8.5l-5.8-5.17c-3.47 3.68-8.46 6.01-14.01 6.01-10.52 0-19.05-8.29-19.05-18.54s8.53-18.61 19.05-18.61c5.55 0 10.54 2.34 14.01 6.02l5.79-5.2c-4.93-5.21-11.95-8.48-19.8-8.48-14.85 0-26.9 11.76-26.9 26.28s12.05 26.2 26.9 26.2zm37.03-21.23l5.75 29.27 4.06 1.72 8.14-19.49 8.53 28.21a119 119 0 0 1 9.73 6.84l-14.8-48.73-4.62-3.56-6.68 16.07-5.55-25.72-6.42-4.17-13.41 42.83 7.47 1.67 7.79-24.93zm-96.75 24.36l23.37-9.06 2.97 9.62 7.4-1.66L122.01 63l-9.67 6.06-30.48 61.54c3.83-3.09 7.91-5.96 12.11-8.61l7.53-15.07zM117.6 74.5l5.03 16.22L106.42 97l11.18-22.49zm51.5 280.93c-7.89.67-13.39 5.18-12.64 13.98.53 5.92 5.44 10.77 13.18 10.12 2.73-.2 5.78-1.05 7.4-3.58l.12.08c.58 7.54-2.58 9.81-5.8 10.45-3.18.71-5.61-.6-6.78-3.02v-.06l-5.62 2.08c1.69 4.63 6.61 7.15 12.83 6.66 7.27-.59 14.26-5.67 13.09-19.47-.39-5.07-1.77-18.35-15.77-17.24zm1.77 18.33c-3.03.27-6.78-.59-7.25-5.97-.41-5.16 3.87-6.41 5.93-6.54 4.06-.33 6.29 1.95 6.64 6.04.37 4.28-2.58 6.29-5.33 6.47zm-31.95-19.63c-6.97-1.23-13.08 1.52-14.15 7.62-.61 3.28.66 5.82 3.57 7.79-6.51 1.42-7.35 6.15-7.68 7.94-.89 4.88 1.59 11.47 11.87 13.28 10.55 1.79 15.05-4.68 15.88-9.18.81-4.61-.91-7.22-4.43-9.61 3.48-.89 5.34-3.31 5.9-6.38.86-4.93-2.73-10.03-10.96-11.46zm1.7 26.44c-.44 2.46-2.93 5.3-7.02 4.56-3.58-.61-5.98-3.33-5.35-6.81.68-3.82 4.32-4.92 7.19-4.37 4.37.68 5.66 4.1 5.19 6.62zm1.89-15.47c-.46 2.53-2.86 4.07-5.96 3.54-3.39-.62-5.01-3.27-4.65-5.33.48-2.66 2.97-4.09 6.51-3.5 2.51.45 4.58 2.56 4.1 5.29zM101 350.65l-1.07-.36-1.52 4.25h.05l-.75 2.07 1.47.53c3.87 1.35 6.51 1.35 8.28.63l-7.97 22.79 7.6 2.51 11.73-33.48-6.91-2.35c-.53 1.55-5.15 5.28-10.91 3.4z" fill="#121822"/><g fill="#fff"><path d="M234.73 247.42v65.52c19.07-16.61 32.37-39.63 36.4-65.52h-36.4zm-69.41 93.38c9.4-.53 18.52-2.23 27.12-4.71v-88.67h-27.12v93.38zm105.27-130.66c-4.69-24.4-17.52-45.93-35.86-61.74v61.74h35.86zm-105.27 0h27.12v-85.01c-8.73-2.48-17.72-4.18-27.12-4.71v89.71z"/><path d="M234.73 148.28h-.13l.13.11v-.11z"/></g><path d="M59.5 283.63V177.56c-8.73 15.84-13.83 33.88-13.83 53.11s5.1 37.14 13.83 52.96zm138.85-156.54v88.93h-33.04v25.51l33.04.14v92.46c10.99-3.91 21.21-9.55 30.35-16.47v-75.98h43.36c.4-3.67.54-7.32.54-10.99 0-4.96-.41-9.94-1.08-14.65H228.7v-72.45c-9.14-6.93-19.36-12.55-30.35-16.48zM123.01 335.3c6.85 2.23 13.84 3.8 21.22 4.84V121.08c-7.38.91-14.36 2.62-21.22 4.85V335.3zm-42.29-24.98c6.45 6.02 13.43 11.11 21.08 15.58V135.34c-7.65 4.32-14.63 9.54-21.08 15.57v159.42z" fill="#e01e2d"/></svg>