<svg xmlns="http://www.w3.org/2000/svg" viewBox="0 0 246.19 430.97" xmlns:v="https://vecta.io/nano"><style>.D{mix-blend-mode:screen}.A{isolation:isolate}.H{mix-blend-mode:multiply}</style><defs><linearGradient id="A" x1="99.8" y1="218.94" x2="99.8" y2="116.12" gradientUnits="userSpaceOnUse"><stop offset="0" stop-color="#a91f25"/><stop offset=".95" stop-color="#e2262b"/></linearGradient><radialGradient id="B" cx="123.06" cy="102.07" fx="123.06" fy="102.07" r="29.41" gradientUnits="userSpaceOnUse"><stop offset="0" stop-color="#fff"/><stop offset=".29" stop-color="#fbfbfb"/><stop offset=".52" stop-color="#f1f1f1"/><stop offset=".73" stop-color="#e0e0e0"/><stop offset=".93" stop-color="#c8c8c8"/><stop offset="1" stop-color="#bfbfbf"/></radialGradient></defs><g class="A"><path d="M163.25 425.94H82.94c-43.24 0-78.29-35.05-78.29-78.29V65.74c0-7.93 6.43-14.35 14.35-14.35h209.38a13.16 13.16 0 0 1 13.16 13.16v283.11c0 43.24-35.05 78.29-78.29 78.29" fill="#424343"/><g fill="#fff"><path d="M228.38,51.39H19.01c-7.93,0-14.35,6.43-14.35,14.35h0c0-7.93,6.43-14.35,14.35-14.35h209.38c7.27,0,13.16,5.89,13.16,13.16v221.02h0V64.55c0-7.27-5.89-13.16-13.16-13.16"/><path class="D" d="M228.38,51.39H19.01c-7.93,0-14.35,6.43-14.35,14.35v256.3c23.03,5.07,47.05,7.77,71.75,7.77,60.75,0,117.39-16.23,165.14-44.25V64.55c0-7.27-5.89-13.16-13.16-13.16" opacity=".1"/><circle cx="123.1" cy="151.27" r="105.43"/></g><path d="M170.06 173.51c-9.08 11.76-17.01 22.03-18.06 32.83 22.89-4.13 44.7-14.02 65.25-29.65l.32.42a97.14 97.14 0 0 0 3.15-24.69c-.02-22.73-7.85-43.66-20.95-60.25.33 3.34.49 6.58.49 9.71.02 32.49-16.52 53.91-30.21 71.63zm-7.39 57.54c5.4 3.68 10.74 4.44 10.8 4.45l-.08.57c18.88-11.38 33.61-28.96 41.34-49.91-19.66 13.68-40.69 22.52-62.66 26.32.82 8.08 4.38 14.31 10.6 18.56z" fill="#17713c"/><path d="M76.06 173.51c9.08 11.76 17.01 22.03 18.06 32.83-22.89-4.13-44.7-14.02-65.25-29.65l-.32.42a97.14 97.14 0 0 1-3.15-24.69c.02-22.73 7.85-43.66 20.95-60.25-.33 3.34-.49 6.58-.49 9.71-.02 32.49 16.52 53.91 30.21 71.63zm7.39 57.54c-5.4 3.68-10.74 4.44-10.8 4.45l.08.57c-18.88-11.38-33.61-28.96-41.34-49.91 19.66 13.68 40.69 22.52 62.66 26.32-.82 8.08-4.38 14.31-10.6 18.56z" fill="#424343"/><g fill="#fff"><path d="M85.14 279c0-.99.46-1.49 1.37-1.49h36.29c10.14 0 17.62 2.47 22.46 7.4s7.26 11.4 7.26 19.39c0 5.53-1.03 10.02-3.08 13.48-2.05 3.45-4.63 6.12-7.73 7.99v.3c1.55.59 3.08 1.56 4.59 2.9 1.5 1.33 2.83 3 3.97 4.97 1.14 1.98 2.08 4.24 2.81 6.76.73 2.53 1.09 5.28 1.09 8.25 0 10-2.85 17.39-8.56 22.2-5.71 4.8-13.62 7.2-23.76 7.2H86.52c-.91 0-1.37-.49-1.37-1.48v-97.85zm35.2 39.65c3.84 0 6.83-1.04 8.97-3.12 2.14-2.07 3.22-5 3.22-8.76s-1.07-6.66-3.22-8.69-5.14-3.05-8.97-3.05H106.1c-.55 0-.82.3-.82.9v21.83c0 .59.28.89.82.89h14.24zm-15.07 41.27c0 .6.28.9.82.9h15.34c4.11 0 7.23-1.12 9.38-3.36 2.14-2.24 3.22-5.35 3.22-9.34s-1.07-6.97-3.22-9.26-5.27-3.43-9.38-3.43h-15.34c-.55 0-.82.3-.82.9v23.59zm56.98-81.06c0-.99.46-1.49 1.37-1.49h59.71c.91 0 1.37.5 1.37 1.49v15.88c0 .99-.46 1.49-1.37 1.49h-40.12c-.55 0-.82.3-.82.89v21.23c0 .59.28.89.82.89h33.41c.91 0 1.37.5 1.37 1.49v15.74c0 .99-.46 1.49-1.37 1.49h-33.41c-.55 0-.82.3-.82.89v38.01c0 .99-.46 1.48-1.37 1.48h-17.39c-.91 0-1.37-.49-1.37-1.48v-98zm-90.45-1.49H54.41c-.91 0-1.37.5-1.37 1.49v64.29c0 5.74-1.18 10.1-3.56 13.07-2.37 2.97-5.75 4.45-10.14 4.45-2.02 0-3.83-.52-5.52-1.36l-6.06 18.57c3.58 1.24 7.33 2.08 11.44 2.08 10.68 0 19.01-3.18 24.99-9.57s8.97-15.82 8.97-28.29v-63.26c0-.99-.46-1.49-1.37-1.49zm91.64 153.6H82.76C37.13 430.97 0 393.85 0 348.21V65.02C0 54.8 8.31 46.49 18.53 46.49h210.33c9.56 0 17.33 7.78 17.33 17.33v284.4c0 45.63-37.13 82.76-82.76 82.76zM18.53 54.71A10.32 10.32 0 0 0 8.22 65.02v283.2c0 41.1 33.44 74.53 74.54 74.53h80.68c41.1 0 74.54-33.44 74.54-74.53V63.82c0-5.02-4.09-9.11-9.11-9.11H18.53z"/><path d="M45.84 79.55V47.22L123.1 3.24l77.1 43.98v47.06L45.84 79.55z"/></g><path d="M126.63 250v-.17c17.26-.8 25.44-4.19 25.44-4.19l14.34-5.74c-20.46-8.28-20.44-26.49-20.44-26.49-6.74 1.15-14.51 1.32-19.74 1.27V250h.4zm-.4-237.57l68.26 39.14v48.5c.07 15.12-3.77 39.01-23.83 62.49-26.14 30.6-24.91 44.74-24.91 44.74s-7.12 1.06-19.45 1.24V90.9l-.07-78.48z" fill="#ba2139"/><path d="M119.49 250v-.17c-17.26-.8-25.44-4.19-25.44-4.19l-14.34-5.74c20.46-8.28 20.44-26.49 20.44-26.49 6.74 1.15 14.51 1.32 19.74 1.27V250h-.4z" fill="url(#A)"/><path d="M119.81 12.21L51.54 51.35v48.73c-.07 15.12 3.77 39.01 23.83 62.49 26.14 30.6 24.91 44.74 24.91 44.74s7.12 1.06 19.45 1.24V90.91l.07-78.71z" fill="#ba2139"/><path class="H" d="M123.06 75.32l6.63 16.78 17.25-5.28-8.99 15.64 14.89 10.2-17.84 2.73 1.31 18-13.25-12.25-13.25 12.25 1.31-18-17.84-2.73 14.89-10.2-8.99-15.64 17.25 5.28 6.63-16.78z" opacity=".15"/><path d="M123.06 73.04l6.63 16.79 17.25-5.29-8.99 15.65 14.89 10.19-17.84 2.73 1.31 18-13.25-12.25-13.25 12.25 1.31-18-17.84-2.73 14.89-10.19-8.99-15.65 17.25 5.29 6.63-16.79z" fill="url(#B)"/></g></svg>