<svg xmlns="http://www.w3.org/2000/svg" viewBox="0 0 410.55 415.9" xmlns:v="https://vecta.io/nano"><circle cx="207.95" cy="203.63" r="196.06" fill="#fff"/><path d="M354.71 127.05c-28.75-54.75-84.98-88.76-146.76-88.76S89.93 72.3 61.18 127.05l-20.19-10.6c32.7-62.27 96.67-100.96 166.96-100.96S342.2 54.18 374.9 116.45l-20.19 10.6z" fill="#c10230"/><path d="M224.84,391.72l-2.01-22.71c41.06-3.64,79.1-22.41,107.11-52.87,28.18-30.64,43.7-70.46,43.7-112.14,0-16.86-2.53-33.5-7.52-49.48l21.76-6.8c5.68,18.18,8.56,37.11,8.56,56.28,0,47.41-17.66,92.72-49.72,127.58-31.87,34.65-75.16,56.01-121.88,60.15Z" fill="#008048"/><path d="M191.05,391.72c-46.73-4.14-90.01-25.5-121.88-60.15-32.07-34.86-49.72-80.17-49.72-127.58,0-19.16,2.88-38.1,8.56-56.28l21.76,6.8c-4.99,15.98-7.52,32.62-7.52,49.48,0,41.68,15.52,81.5,43.7,112.14,28.02,30.46,66.06,49.23,107.11,52.87l-2.01,22.71Z"/><circle cx="207.95" cy="203.63" r="147.32" fill="#c10230"/><path d="M207.95 176.76l15.66 28.53 32.08-5.54-12.55 30.03 24.34 21.63-31.31 8.92-1.73 32.5-26.49-18.91-26.5 18.91-1.73-32.5-31.31-8.92 24.34-21.63-12.54-30.03 32.07 5.54 15.67-28.53zm-34.12-61.71h-11.41c-.37 0-.71.14-1.01.42s-.46.61-.46.98v37.03c0 .89-.12 1.55-.35 1.99s-.75.67-1.54.67h-9.24c-.37 0-.7.14-.98.42s-.42.61-.42.98v7.63c0 .37.09.68.28.91s.56.4 1.12.49c1.12.19 8.87.31 9.94.38l3.08.11c1.82 0 3.5-.2 5.04-.59 1.54-.4 2.85-1.11 3.92-2.14s1.91-2.42 2.52-4.17.91-3.98.91-6.68v-37.03c0-.37-.14-.7-.42-.98s-.61-.42-.98-.42zm41.51.21l-5.36-.56c-2.22-.19-5.03-.28-8.43-.28a39.02 39.02 0 0 0-6.6.56c-2.16.37-4.08 1.12-5.77 2.24s-3.05 2.71-4.08 4.76-1.55 4.76-1.55 8.12v35.56c0 .37.14.7.42.98s.61.42.98.42h11.47c.37 0 .7-.14.98-.42s.42-.61.42-.98V146.2h17.22c.37 0 .7-.14.98-.42s.42-.61.42-.98v-8.26c0-.37-.14-.7-.42-.98s-.61-.42-.98-.42h-17.22v-5.04c0-1.35.24-2.28.73-2.77s1.37-.73 2.62-.73h14.14c.37 0 .7-.14.98-.42s.42-.61.42-.98v-8.54c0-.79-.47-1.26-1.4-1.4zm42.7 7.49c-.37-1.73-.98-3.14-1.82-4.24s-1.84-1.95-3.01-2.56-2.47-1.01-3.92-1.22-3.01-.32-4.69-.32-3.24.11-4.69.32-2.75.62-3.92 1.22c-1.17.61-2.17 1.46-3.01 2.56s-1.45 2.51-1.82 4.24l-9.38 42.84c-.09.37-.06.71.1 1.02.16.3.5.45 1.02.45h12.11c.51 0 .85-.13 1.01-.38.16-.26.29-.57.39-.95l1.96-9.73h12.46l1.96 9.73c.09.37.22.69.38.95s.5.38 1.02.38h12.18c.51 0 .84-.14.98-.42s.16-.63.07-1.05l-9.38-42.84zM240.4 144.8l3.43-17.78.21-.73c.05-.16.23-.25.56-.25s.51.08.56.25l.21.73 3.43 17.78h-8.4z" fill="#fff"/></svg>