<svg xmlns="http://www.w3.org/2000/svg" viewBox="0 0 337.41 342.48"><circle cx="168.7" cy="175.25" r="160.9" fill="#fff"/><g fill-rule="evenodd"><path d="M42.09 165.76l-.84-8.99c-.14-5.2-.11-10.4.02-15.6.03-.88.75-2.1 1.51-2.57 11.03-6.54 20.37-15.1 29.1-24.38l41.09-43.61c12.46-12.51 26.7-22.88 42.79-30.47 9.74-4.6 19.87-8.07 30.42-10.36 10.99-2.38 22.15-3.05 33.28-4.16 8.74-.88 15.37 3.18 22.34 6.64 12.55 6.24 24.03 14.22 34.24 23.84 6.35 6 12.21 12.52 18.46 18.97-1.41 1.27-2.56 2-3.33 3.02-4.26 5.69-8.72 11.27-12.58 17.23-4.6 7.14-10.96 11.66-18.97 13.75-2.7.71-5.75.06-8.65.08-5.63.02-11.25-.06-16.88.14-5.63.22-11.25.6-16.88 1.16-7.45.73-14.9 1.55-22.31 2.64-8.21 1.21-16.41 2.6-24.54 4.22-7.28 1.45-14.49 3.18-21.66 5.04-7.67 1.99-15.31 4.1-22.86 6.49-8.62 2.74-17.24 5.5-25.62 8.88-11.73 4.74-23.34 9.8-34.79 15.21-7.36 3.48-14.31 7.81-21.45 11.77l-1.89 1.05m268.23 83.73c-3.25 5.27-6.29 10.69-9.79 15.8-9.47 13.8-20.79 25.92-34.08 36.17-13.14 10.13-27.33 18.43-43.07 23.71-8.75 2.96-17.76 5.16-26.75 7.34-2.87.69-6.14.68-9.05.11-7.76-1.54-15.52-3.25-23.11-5.45-15.37-4.43-29.43-11.73-42.67-20.63-9.28-6.25-17.8-13.42-25.61-21.38-14.83-15.12-26.91-32.2-35.77-51.46-2.64-5.72-4.91-11.6-7.37-17.39-.55-1.29-.25-1.98 1.07-2.6 6.64-3.13 13.44-3.31 20.39-1.32 12.29 3.53 23.16 10.2 34.68 15.44 11.51 5.22 23.11 10.33 34.9 14.87 8.68 3.35 17.66 6.01 26.65 8.4 8.16 2.16 16.47 3.88 24.8 5.21 11.28 1.81 22.6 3.6 33.98 4.42 12.87.92 25.84 1.38 38.72.87 14.49-.58 28.41-4.3 40.91-12.15.22-.13.48-.22.72-.32a11.77 11.77 0 0 1 .44.36" fill="#ee3e43"/><path d="M263.2 254.64l2.49-5.76 7.5-20.86.75-2.57c.65-2.27.26-2.79-2.16-2.74-6.08.19-12.18.21-18.25.66-8.65.63-17.27 2.02-25.92 2.33-9.1.32-18.26.07-27.34-.55-5.28-.37-10.5-1.84-15.67-3.07-1.97-.46-3.92-1.43-5.6-2.59-3.4-2.34-3.81-6.56-.5-9.02 2.59-1.94 5.76-3.52 8.91-4.18 6.8-1.43 13.81-1.89 20.62-3.28 5.19-1.05 10.26-2.77 15.28-4.51 1.94-.66 3.69-2.21 3.3-4.7-.29-1.86-2.32-3.24-5.09-3.15-2.8.1-5.55.82-8.35 1.16-4.25.5-8.52 1.24-12.78 1.26-4.16.03-6.81-3.12-6.03-6.76.31-1.49 1.34-2.99 2.42-4.13 3.84-4.05 8.78-6.46 14.08-7.69 5.91-1.38 11.97-2.05 17.95-3.08 5.76-.98 10.7-3.49 14.35-8.17 2.03-2.6 1.37-5.07-1.92-5.66-4.25-.78-8.64-.78-12.98-1.15-3.16-.27-6.38-.27-9.47-.94-3.38-.74-4.62-4.49-2.81-7.7 2.34-4.19 6.14-6.79 10.56-8.01 5.04-1.38 10.27-2.14 15.45-2.94 7.24-1.13 14.66-1.36 21.34-4.88 1.17-.62 2.33-1.34 3.33-2.21 1.83-1.56 1.42-4.14-.82-4.94-1.29-.48-2.72-.61-4.09-.85-2.48-.42-5.02-.65-7.43-1.3-1.05-.29-2.5-1.38-2.61-2.25-.13-.89.97-2.34 1.92-2.88 2.5-1.42 5.12-2.82 7.85-3.59 10.39-2.93 17.71-9.46 23.22-18.52 2.61-4.3 5.52-8.47 8.74-12.33 3.86-4.64 4.38-3.69 7.25.12 7.6 10.11 14.48 20.72 18.96 32.58 2.66 7.03 4.44 14.43 6.23 21.76 2.64 10.77 3.87 21.78 3.71 32.86-.12 8.29-.84 16.58-1.64 24.84-1.13 11.5-4.31 22.55-8.08 33.42-1.4 4.05-3 8.07-4.96 11.88-.8 1.55-2.63 2.74-4.24 3.66-6.66 3.83-13.79 6.42-21.31 8.03-8.02 1.72-16.1 2.53-24.28 2.56-.44 0-.87-.06-1.87-.15" fill="#16733e"/><g fill="#ee3e43"><path d="M205.66 19.43l-6.58.45c-9.61.35-18.99 2.11-28.25 4.62-13.19 3.58-25.48 9.13-37.03 16.41-13.93 8.77-26.19 19.54-37.21 31.66-11.38 12.52-22.15 25.61-33.54 38.12-5.99 6.56-12.76 12.42-19.18 18.57-.4.39-.94.66-1.83 1.28.11-1.99.06-3.59.28-5.16 1.45-10.73 3.39-21.35 6.37-31.81 4.18-14.7 10.06-28.64 17.7-41.85.76-1.3 1.88-2.5 3.08-3.44 14.03-10.94 29.41-19.4 46.29-25.16 9.15-3.13 18.47-5.35 28.01-6.9 12.62-2.05 25.31-2.32 37.98-1.26 7.73.65 15.39 2.31 23.07 3.53.34.05.63.29.95.45-.04.16-.06.33-.1.49M43.4 220.76c24.27 59.01 64.91 99.21 128.18 114.07-.33.06-.82.24-1.32.24-11.84.07-23.6-.89-35.18-3.37-25.75-5.52-48.99-16.48-69.16-33.48-6.73-5.66-12.86-12.09-18.84-18.56-2.17-2.35-3.26-5.77-4.54-8.83-4.06-9.76-7.82-19.76-7.02-30.48.5-6.67 1.5-13.66 6.91-18.76.26-.25.55-.47.96-.84"/><path d="M57.22 58.95l-6.14 10.44c-6.37 11.36-10.99 23.42-14.26 36.02-2.43 9.43-4.19 18.95-4.95 28.64-.19 2.37-.98 3.9-3.38 4.52-1.35.34-2.58 1.15-3.93 1.49-5.27 1.32-7.32-.29-9.39-6.32-1.36-4.02-.04-7.56 1.23-11.15 5.13-14.62 11.87-28.47 21.15-40.89 5.57-7.46 12.01-14.27 18.08-21.37.3-.36.73-.65 1.6-1.38M8.85 192.57c-2.15-18.46-.95-36.26 3.32-54.08 4.18 8.9 11.13 8.26 18.53 5.58.22.4.39.59.4.78l.95 25.8c.02.87-.47 2.08-1.14 2.58-7.42 5.58-14.68 11.35-20.87 18.35-.23.27-.54.45-1.21.99"/></g></g></svg>