<svg xmlns="http://www.w3.org/2000/svg" width="116" height="105" fill="none" xmlns:v="https://vecta.io/nano"><path d="M73.687 7.664H42.32v56.367h31.367V7.664z" fill="#ff5f00"/><path d="M44.309 35.848c-.005-5.429 1.225-10.787 3.597-15.67s5.824-9.162 10.095-12.514A35.85 35.85 0 0 0 39.674.205a35.85 35.85 0 0 0-19.493 3.4A35.85 35.85 0 0 0 0 35.848a35.85 35.85 0 0 0 20.181 32.243 35.85 35.85 0 0 0 37.82-4.059c-4.27-3.352-7.722-7.631-10.094-12.514s-3.602-10.241-3.597-15.67z" fill="#eb001b"/><path d="M116.003 35.848a35.85 35.85 0 0 1-5.46 19.019c-3.569 5.702-8.67 10.284-14.719 13.224s-12.805 4.118-19.493 3.4a35.85 35.85 0 0 1-18.327-7.46 35.85 35.85 0 0 0 0-56.367C63.292 3.508 69.643.923 76.331.205s13.443.461 19.493 3.4a35.84 35.84 0 0 1 14.719 13.224 35.85 35.85 0 0 1 5.46 19.019zm-3.42 22.213v-1.154h.465v-.235h-1.185v.235h.466v1.154h.254zm2.301 0V56.67h-.363l-.418.957-.418-.957h-.364v1.391h.257v-1.05l.392.905h.266l.391-.907v1.052h.257z" fill="#f79e1b"/><path d="M3.321 97V86.091h2.457v1.854h.128c.227-.625.604-1.113 1.129-1.463s1.153-.533 1.882-.533c.739 0 1.361.18 1.868.54s.871.84 1.08 1.456h.114c.242-.606.649-1.089 1.222-1.449s1.262-.547 2.053-.547c1.004 0 1.823.317 2.457.952s.952 1.56.952 2.777V97h-2.578v-6.925c0-.677-.18-1.172-.54-1.484s-.8-.476-1.321-.476c-.62 0-1.106.194-1.456.582s-.518.883-.518 1.499V97H9.727v-7.031c0-.564-.17-1.013-.511-1.35s-.777-.504-1.321-.504c-.369 0-.705.095-1.009.284s-.545.447-.724.788-.27.729-.27 1.179V97H3.321zm21.088.22c-.691 0-1.314-.123-1.868-.369a3.05 3.05 0 0 1-1.307-1.108c-.317-.488-.476-1.089-.476-1.804 0-.615.114-1.124.341-1.527a2.64 2.64 0 0 1 .93-.966c.393-.242.836-.424 1.328-.547s1.011-.22 1.541-.277l1.555-.178c.398-.057.687-.142.867-.256s.277-.301.277-.547v-.043c0-.535-.159-.949-.476-1.243s-.774-.44-1.371-.44c-.63 0-1.129.137-1.499.412s-.611.599-.739.973l-2.401-.341c.189-.663.502-1.217.938-1.662s.968-.786 1.598-1.008 1.326-.341 2.088-.341c.526 0 1.049.062 1.57.185s.997.327 1.427.611.776.66 1.037 1.144.398 1.087.398 1.811V97h-2.472v-1.499h-.085a3.14 3.14 0 0 1-.66.852c-.279.26-.632.471-1.058.632s-.916.234-1.484.234zm.668-1.889c.516 0 .963-.102 1.342-.305s.67-.483.874-.824a2.1 2.1 0 0 0 .313-1.115v-1.285c-.081.066-.218.128-.412.185a5.83 5.83 0 0 1-.639.149l-.703.114-.604.085c-.383.052-.727.137-1.03.256a1.71 1.71 0 0 0-.717.497c-.175.208-.263.478-.263.81 0 .474.173.831.518 1.073s.786.362 1.321.362zm16.3-6.357l-2.344.256c-.066-.237-.182-.459-.348-.668a1.73 1.73 0 0 0-.653-.504c-.275-.128-.611-.192-1.008-.192-.535 0-.985.116-1.349.348s-.537.533-.533.902c-.005.317.111.575.348.774s.639.362 1.193.49l1.861.398c1.032.222 1.799.575 2.301 1.058s.762 1.115.767 1.896c-.005.686-.206 1.293-.604 1.818s-.94.928-1.641 1.222-1.506.44-2.415.44c-1.335 0-2.41-.279-3.224-.838s-1.3-1.347-1.456-2.351l2.507-.241c.114.492.355.864.724 1.115s.85.376 1.442.376c.611 0 1.101-.125 1.47-.376s.561-.561.561-.93a.97.97 0 0 0-.362-.774c-.237-.204-.606-.36-1.108-.469l-1.861-.391c-1.046-.218-1.821-.585-2.322-1.101s-.751-1.179-.746-1.975c-.005-.672.178-1.255.547-1.747s.893-.881 1.555-1.151 1.437-.412 2.308-.412c1.278 0 2.285.272 3.018.817s1.196 1.281 1.371 2.209zm7.802-2.883v1.989h-6.271v-1.989h6.271zm-4.723-2.614h2.571v10.242c0 .346.052.611.156.795s.251.303.426.369.369.1.582.1a2.51 2.51 0 0 0 .44-.036l.313-.064.433 2.01c-.137.047-.334.099-.59.156s-.559.09-.923.099c-.644.019-1.224-.078-1.74-.291s-.926-.554-1.229-1.009-.445-1.023-.44-1.704V83.477zm11.586 13.736c-1.094 0-2.038-.227-2.834-.682s-1.399-1.108-1.825-1.946-.639-1.835-.639-2.976c0-1.122.213-2.107.639-2.955s1.032-1.515 1.804-1.989 1.678-.717 2.72-.717c.672 0 1.307.109 1.904.327a4.3 4.3 0 0 1 1.591.994c.464.45.829 1.023 1.094 1.719s.398 1.515.398 2.472v.788H51.95v-1.733h6.477c-.005-.492-.111-.93-.32-1.314s-.5-.694-.874-.916-.8-.334-1.293-.334c-.526 0-.987.128-1.385.383s-.708.582-.93.994a2.86 2.86 0 0 0-.334 1.342v1.513c0 .634.116 1.179.348 1.633s.556.795.973 1.037.904.355 1.463.355c.374 0 .713-.052 1.016-.156s.566-.267.788-.476a1.98 1.98 0 0 0 .504-.774l2.401.27a3.74 3.74 0 0 1-.867 1.662c-.421.469-.961.833-1.619 1.094s-1.411.384-2.258.384zM63.067 97V86.091h2.493v1.818h.114c.199-.63.54-1.115 1.023-1.456s1.044-.518 1.669-.518l.476.021a3.19 3.19 0 0 1 .447.05v2.365a2.71 2.71 0 0 0-.519-.099c-.232-.033-.457-.05-.675-.05a2.6 2.6 0 0 0-1.264.305c-.369.199-.66.476-.874.831s-.32.765-.32 1.229V97h-2.571zm12.239.213c-1.089 0-2.024-.239-2.805-.717a4.79 4.79 0 0 1-1.797-1.981c-.417-.847-.625-1.823-.625-2.926s.213-2.086.639-2.933 1.028-1.515 1.804-1.989 1.705-.717 2.77-.717c.885 0 1.669.163 2.351.49s1.233.779 1.641 1.371.639 1.274.696 2.06h-2.457a2.35 2.35 0 0 0-.71-1.314c-.369-.355-.864-.533-1.484-.533a2.32 2.32 0 0 0-1.385.426c-.398.279-.708.682-.93 1.207s-.327 1.155-.327 1.889c0 .743.109 1.382.327 1.918s.523.94.916 1.229.864.426 1.399.426c.379 0 .717-.071 1.016-.213a2.04 2.04 0 0 0 .76-.632c.204-.275.343-.608.419-1.001h2.457c-.061.772-.289 1.456-.682 2.053s-.928 1.056-1.605 1.392-1.473.497-2.386.497zm9.924.007c-.691 0-1.314-.123-1.868-.369a3.05 3.05 0 0 1-1.307-1.108c-.317-.488-.476-1.089-.476-1.804 0-.615.114-1.124.341-1.527a2.64 2.64 0 0 1 .93-.966c.393-.242.836-.424 1.328-.547s1.011-.22 1.541-.277l1.555-.178c.398-.057.687-.142.867-.256s.277-.301.277-.547v-.043c0-.535-.159-.949-.476-1.243s-.774-.44-1.371-.44c-.63 0-1.129.137-1.499.412s-.611.599-.739.973l-2.401-.341c.189-.663.502-1.217.938-1.662s.968-.786 1.598-1.008 1.326-.341 2.088-.341a6.8 6.8 0 0 1 1.57.185c.521.123.997.327 1.428.611s.777.66 1.037 1.144.398 1.087.398 1.811V97h-2.472v-1.499h-.085a3.14 3.14 0 0 1-.66.852c-.279.26-.632.471-1.058.632s-.916.234-1.484.234zm.668-1.889c.516 0 .963-.102 1.342-.305s.67-.483.874-.824a2.1 2.1 0 0 0 .313-1.115v-1.285c-.081.066-.218.128-.412.185s-.402.106-.639.149l-.703.114-.604.085c-.384.052-.727.137-1.03.256s-.542.284-.717.497-.263.478-.263.81c0 .474.173.831.518 1.073s.786.362 1.321.362zM93.575 97V86.091h2.493v1.818h.114c.199-.63.54-1.115 1.023-1.456s1.044-.518 1.669-.518l.476.021a3.19 3.19 0 0 1 .447.05v2.365a2.71 2.71 0 0 0-.518-.099 4.78 4.78 0 0 0-.675-.05 2.6 2.6 0 0 0-1.264.305c-.369.199-.66.476-.874.831s-.32.765-.32 1.229V97h-2.571zm11.529.192c-.857 0-1.624-.22-2.301-.661s-1.213-1.079-1.606-1.918-.589-1.856-.589-3.054c0-1.212.199-2.235.597-3.068s.944-1.47 1.626-1.896a4.18 4.18 0 0 1 2.28-.646c.639 0 1.165.109 1.577.327s.738.471.98.774a4.78 4.78 0 0 1 .561.845h.106v-5.44h2.578V97h-2.528v-1.719h-.156c-.133.265-.325.547-.576.845s-.582.544-.994.753-.93.313-1.555.313zm.717-2.109c.545 0 1.009-.147 1.392-.44s.675-.712.874-1.243.298-1.148.298-1.854-.099-1.319-.298-1.84-.483-.926-.867-1.215-.845-.433-1.399-.433c-.573 0-1.051.149-1.435.448s-.672.71-.866 1.236-.291 1.127-.291 1.804.097 1.29.291 1.825.49.949.873 1.257c.389.303.865.455 1.428.455z" fill="#000"/></svg>