<svg xmlns="http://www.w3.org/2000/svg" width="50" height="50" fill="none" xmlns:v="https://vecta.io/nano"><mask id="A" maskUnits="userSpaceOnUse" x="0" y="0" width="50" height="50"><path d="M49.371 0H0v49.371h49.371V0z" fill="#fff"/></mask><g mask="url(#A)"><path d="M24.504 40.116c6.578 0 11.91-5.344 11.91-11.937s-5.332-11.936-11.91-11.936-11.91 5.344-11.91 11.936 5.332 11.937 11.91 11.937z" fill="#e58613"/><path d="M24.497 37.69c5.24 0 9.489-4.258 9.489-9.51s-4.248-9.51-9.489-9.51-9.489 4.258-9.489 9.51 4.248 9.51 9.489 9.51z" fill="#fff"/><path d="M24.92 26.442c.478-.004.952.076 1.402.236a3.4 3.4 0 0 1 1.137.678 3.31 3.31 0 0 1 .755 1.13c.167.483.243.992.226 1.503.01.583-.09 1.163-.294 1.71-.184.492-.483.934-.872 1.287-.414.37-.902.648-1.431.816a6.37 6.37 0 0 1-1.961.275 8.46 8.46 0 0 1-.872 0c-.28-.018-.558-.058-.833-.118a4.72 4.72 0 0 1-.755-.197c-.223-.072-.44-.164-.647-.275v-2.152c.213.115.432.216.657.305.25.095.505.174.765.236a7.52 7.52 0 0 0 .794.167c.253.038.509.057.765.059.581.041 1.159-.118 1.637-.452a1.67 1.67 0 0 0 .569-1.415 1.63 1.63 0 0 0-.549-1.326 2.66 2.66 0 0 0-1.706-.452h-.441l-.471.069-.431.079-.363.098-.98-.531.441-5.993h6.195v2.102h-4.019l-.196 2.309.598-.108a5.32 5.32 0 0 1 .882-.039z" fill="#13121b"/><path d="M24.543 12.422c2.647 0 4.794-2.666 4.794-5.954S27.191.515 24.543.515 19.75 3.18 19.75 6.468s2.146 5.954 4.793 5.954zm7.627 4.883a17.15 17.15 0 0 0 .824-3.036c.755.373 1.323 3.311 1.245 4.843a13.36 13.36 0 0 1 3.617 8.518c1.568-2.407 6.166-19.059-7.705-23.185.745 8.174-4.813 9.097-5.46 9.117s-6.675-.756-5.881-8.97C9.694 6.587 8.929 14.997 9.194 18.081a15.29 15.29 0 0 1 6.45-1.965c.15-.68.463-1.314.911-1.847 0 .727.049 1.14.059 1.739.441-.059 1.617-.177 3.146-.236a13.31 13.31 0 0 1 6.398-.771c2.164.271 4.228 1.069 6.012 2.324v-.019z" fill="#678925"/><path d="M48.492 41.815c1.324-2.297.095-5.493-2.746-7.138s-6.217-1.115-7.541 1.182-.094 5.493 2.746 7.138 6.217 1.115 7.541-1.182zm-11.376-6.424c.333-.59 3.989-5.413 10.675-.59 2.882-8.92-3.999-13.754-6.803-15.1a15.16 15.16 0 0 1-1.49 6.602 4.39 4.39 0 0 1 1.127 1.719l-1.539-.815c-.166.403-.627 1.434-1.313 2.751-.28 2.2-1.1 4.295-2.386 6.099a13.38 13.38 0 0 1-4.985 4.237 17.49 17.49 0 0 0 2.01 1.965c-.628.413-2.941-.334-4.382-1.091a13.41 13.41 0 0 1-9.263-.845c2.333 3.419 13.596 13.783 23.496 4.401-7.44-3.468-5.46-8.763-5.146-9.333z" fill="#2f6fa8"/><path d="M10.79 35.824c-1.333-2.299-4.705-2.82-7.548-1.179S-.787 39.488.546 41.777s4.705 2.829 7.538 1.179 4.058-4.834 2.705-7.132zm.358-7.555c0-.511 0-.982.088-1.513a16.62 16.62 0 0 0-3.078.825c-.059-.874 2.343-2.947 3.686-3.576a13.34 13.34 0 0 1 3.715-5.669 11.01 11.01 0 0 1 1.96-1.641C15.687 16.234-2.389 20.35 1.159 34.9c6.676-4.745 10.263-.393 10.596.167s2.706 6.199-4.793 9.657c6.264 6.877 13.91 3.35 16.448 1.572a15.11 15.11 0 0 1-4.97-4.588c-.661.196-1.358.24-2.039.128l1.47-.982a48.66 48.66 0 0 1-1.304-1.876c-1.675-1.237-3.037-2.85-3.978-4.709a13.4 13.4 0 0 1-1.443-5.999z" fill="#c1a840"/></g></svg>