<svg xmlns="http://www.w3.org/2000/svg" width="50" height="50" fill="none" xmlns:v="https://vecta.io/nano"><mask id="A" maskUnits="userSpaceOnUse" x="0" y="0" width="50" height="50"><path d="M49.371 0H0v49.371h49.371V0z" fill="#fff"/></mask><g mask="url(#A)"><path d="M24.504 40.008c6.578 0 11.91-5.332 11.91-11.91s-5.332-11.91-11.91-11.91-11.91 5.332-11.91 11.91 5.332 11.91 11.91 11.91z" fill="#e58613"/><path d="M24.509 37.587a9.49 9.49 0 0 0 9.489-9.489 9.49 9.49 0 0 0-9.489-9.489 9.49 9.49 0 0 0-9.489 9.489 9.49 9.49 0 0 0 9.489 9.489z" fill="#fff"/><path d="M28.123 31.313h-1.412v2.431H24.3v-2.431h-4.901v-1.725l5.039-7.528h2.274v7.381h1.412v1.872zM24.3 29.353v-2.255-.451-.51-.51-.421-.255h-.069l-.324.716c-.118.245-.265.5-.412.755l-1.961 2.941 2.764-.01z" fill="#000"/><path d="M24.543 12.375c2.648 0 4.793-2.66 4.793-5.94S27.191.494 24.543.494s-4.793 2.66-4.793 5.94 2.146 5.94 4.793 5.94zm7.628 4.872a17.12 17.12 0 0 0 .823-3.029c.755.372 1.323 3.303 1.245 4.832a13.32 13.32 0 0 1 3.617 8.499c1.569-2.402 6.166-19.017-7.705-23.134.745 8.156-4.813 9.077-5.46 9.097s-6.675-.755-5.881-8.95c-9.116 1.99-9.881 10.381-9.616 13.459a15.32 15.32 0 0 1 6.45-1.961 4.29 4.29 0 0 1 .912-1.843c0 .725.049 1.137.059 1.735.441-.059 1.617-.177 3.146-.235a13.34 13.34 0 0 1 6.398-.77c2.163.27 4.228 1.066 6.012 2.319v-.019z" fill="#678925"/><path d="M48.492 41.703c1.324-2.292.094-5.481-2.747-7.122s-6.217-1.113-7.541 1.18-.094 5.481 2.746 7.122 6.217 1.113 7.541-1.18zm-11.388-6.41c.333-.588 3.99-5.401 10.675-.588 2.882-8.901-3.999-13.723-6.803-15.066.007 2.28-.502 4.532-1.49 6.587.506.475.892 1.063 1.127 1.716l-1.539-.814c-.167.402-.627 1.431-1.314 2.745a13.37 13.37 0 0 1-7.371 10.312 17.45 17.45 0 0 0 2.009 1.96c-.627.412-2.941-.333-4.382-1.088a13.44 13.44 0 0 1-9.263-.843c2.333 3.411 13.596 13.753 23.496 4.391-7.44-3.46-5.46-8.744-5.146-9.312z" fill="#2f6fa8"/><path d="M10.79 35.724c-1.333-2.294-4.705-2.813-7.548-1.176S-.787 39.381.546 41.665s4.705 2.823 7.538 1.176 4.058-4.823 2.706-7.117zm.366-7.538c0-.51 0-.98.088-1.509a16.65 16.65 0 0 0-3.078.823c-.059-.872 2.343-2.941 3.686-3.568a13.31 13.31 0 0 1 3.715-5.656c.588-.62 1.246-1.169 1.96-1.637-1.833-.461-19.909 3.646-16.36 18.164 6.675-4.735 10.263-.392 10.596.166s2.706 6.185-4.793 9.636c6.264 6.862 13.91 3.343 16.449 1.569-1.981-1.131-3.681-2.696-4.97-4.578-.662.196-1.358.239-2.039.127l1.47-.98c-.216-.284-.706-.98-1.304-1.872a13.33 13.33 0 0 1-5.421-10.685z" fill="#c1a840"/></g></svg>