<svg xmlns="http://www.w3.org/2000/svg" width="1466.667" height="601.333" viewBox="0 0 1100 451" preserveAspectRatio="xMidYMid meet" xmlns:v="https://vecta.io/nano"><path d="M207.2 6.6c-32.8 8.8-57.8 38.9-59.9 72.1l-.6 9.3h5.9c16.4 0 36.2-10.4 48.7-25.4 6.1-7.4 12.7-19.4 15.6-28.5 2.5-7.5 4.5-22.2 3.6-26.2-.6-2.6-1.1-2.9-4.3-2.8-2 0-6.1.7-9 1.5zm185 190.6l.3 167.3 25.7.3 25.8.2.2-57.2.3-57.3 45.5-.5c46.7-.6 48-.7 63.4-5.2 39.8-11.5 67.9-45.3 73.7-88.5 1.4-11 .7-32.1-1.6-42.8-4.1-19.4-13-36.5-26.4-50.7-16.9-17.9-37.7-28.1-64.4-31.7-4.9-.7-33.1-1.1-75.3-1.1H392l.2 167.2zM523 75.4c25.9 4.6 42.9 19.6 49.7 43.7 2.5 8.9 2.5 32.7 0 41.9-5.5 20.6-19.4 35-39.9 41.5-11.2 3.5-26.3 4.6-59.3 4.3l-29-.3-.3-66.3L444 74h35.7c25.4.1 38 .5 43.3 1.4zM206.5 92.6c-8.3 1.4-16.8 3.9-33.6 9.9-22.6 8.2-24 8.2-43.5.7C109.6 95.5 103.3 94 91 94c-24 0-44.7 9.2-62.1 27.6-30.6 32.5-36.5 87.8-15.7 148.3 10.3 30.1 30.4 62.9 50.1 81.7 10.9 10.6 19 14.7 29.6 15.3 9.4.4 15.8-1 29.3-6.5 15.7-6.4 22-7.7 36.3-7.2 10.9.4 12.8.8 21.5 4.2 19.2 7.5 23.5 8.8 31.1 9.3 13 .9 24.6-3.7 36.1-14.5 15.6-14.6 38.6-51.3 46.2-74l2.5-7.2-4.2-2.1c-19.2-9.8-34.5-27.6-40.6-47.2-10-32.6.7-66.3 27.9-87.8l6.9-5.5c.6-.6-3-5.6-7.8-10.8-9.7-10.3-24.9-18.9-40.3-22.6-8.2-2-25.4-3.3-31.3-2.4zm521.4 28c-23.9 4.3-45.6 15.7-57.9 30.5-9.2 11.1-15.6 25.7-16.2 37.4l-.3 5 23.3.3c14.7.1 23.2-.1 23.2-.7 0-3.9 4.9-12.9 9.8-18.2 9.6-10.4 22.2-15.2 39.7-15.2 16.8 0 28.5 3.6 37 11.4 9.2 8.5 12.5 18.2 12.5 37.5v11.1l-9.2.7-35.3 2.1c-14.3.9-31.2 2.3-37.5 3.1-47.3 6.6-73.3 28.8-75.7 64.6-2.5 36.8 19.6 64.9 58.2 74.5 10.3 2.5 35.4 2.5 45.5-.1 9.5-2.4 20.9-7.2 28.1-11.8 7.8-5 17.7-14.6 22.4-21.7 2.2-3.3 4.3-6.1 4.8-6.1.4 0 .7 9 .7 20v20l23.8-.2 23.7-.3V275v-89.5l-2.3-7.9c-9.2-31.9-35.4-52.1-74.7-57.5-10.4-1.5-34.3-1.2-43.6.5zM799 266.2c0 20.7-4.3 32.5-15.9 43.8s-26.9 17-45.7 17c-17.9 0-29.7-4-37.7-13-5.4-6-7.7-12.2-7.7-20.5 0-15.6 8.7-25.7 27-31.3 3.6-1.1 9-2.3 12-2.7 5.5-.7 55.8-4.1 63.8-4.4l4.2-.1v11.2zm74.4-132L899 205l48.4 134 9.6 26.4-3.6 11c-4.7 14.4-8.5 21.8-14.2 27.5-8.5 8.4-19.1 11.6-36.1 10.9l-10.1-.4v18.4 18.3l29.3-.3 29.2-.3 8-4c10.6-5.3 24-18.3 31.4-30.7 9.8-16.5 6.7-8 92.5-249l15.6-44.3c0-.3-11.8-.5-26.2-.5h-26.3l-4.6 15.3-45.6 147.2-10.9 34.4c-.8.8-1.4-.6-3.8-8.5L955.5 226l-27.9-90-4.1-13.5-27.2-.3-27.3-.2 4.4 12.2z"/></svg>