<?xml version="1.0" standalone="no"?>
<!DOCTYPE svg PUBLIC "-//W3C//DTD SVG 20010904//EN"
 "http://www.w3.org/TR/2001/REC-SVG-20010904/DTD/svg10.dtd">
<svg version="1.0" xmlns="http://www.w3.org/2000/svg"
 width="1031.000000pt" height="580.000000pt" viewBox="0 0 1031.000000 580.000000"
 preserveAspectRatio="xMidYMid meet">

<g transform="translate(0.000000,580.000000) scale(0.100000,-0.100000)"
fill="#1135bf" stroke="none">
<path d="M6345 4475 c-339 -48 -608 -169 -792 -357 -120 -121 -180 -223 -230
-385 -24 -79 -26 -104 -27 -243 0 -145 1 -160 27 -230 41 -112 83 -176 178
-271 102 -103 219 -181 479 -324 107 -59 216 -123 242 -141 65 -48 134 -128
149 -171 13 -42 7 -119 -14 -160 -25 -47 -95 -109 -161 -141 -102 -50 -205
-66 -381 -59 -227 9 -440 61 -628 153 -42 20 -79 35 -81 33 -7 -9 -139 -649
-134 -654 8 -9 139 -53 237 -80 253 -70 624 -103 861 -76 380 44 653 161 861
370 176 177 261 387 262 651 1 147 -14 216 -72 335 -100 203 -233 310 -707
569 -239 131 -309 200 -309 306 0 71 33 124 107 175 85 57 162 77 323 82 207
8 436 -35 613 -113 38 -17 54 -20 57 -11 6 15 135 607 135 618 0 9 -162 63
-250 83 -215 50 -555 68 -745 41z"/>
<path d="M287 4423 c-18 -66 -18 -72 5 -77 205 -45 355 -89 536 -157 219 -83
310 -146 357 -246 15 -30 90 -298 167 -596 77 -298 199 -765 269 -1037 71
-272 153 -586 181 -698 l53 -202 414 2 414 3 27 65 c15 36 109 261 210 500
100 239 222 530 270 645 48 116 136 325 195 465 195 465 237 564 300 715 34
83 106 254 160 380 53 127 99 236 102 243 4 10 -78 12 -406 10 l-412 -3 -34
-85 c-19 -47 -152 -382 -295 -745 -144 -363 -311 -785 -372 -938 -60 -152
-113 -275 -118 -272 -4 2 -10 21 -13 42 -3 21 -35 193 -71 383 -169 883 -219
1144 -241 1257 -13 67 -34 141 -46 165 -45 88 -111 146 -205 178 -55 19 -86
20 -750 20 -651 0 -693 -1 -697 -17z"/>
<path d="M4286 4423 c-7 -25 -126 -585 -336 -1573 -39 -184 -81 -384 -95 -445
-13 -60 -65 -303 -115 -540 -50 -236 -92 -436 -95 -442 -3 -10 78 -13 388 -13
l392 0 57 267 c31 148 174 822 318 1498 143 677 263 1238 266 1248 5 16 -18
17 -385 17 -363 0 -390 -1 -395 -17z"/>
<path d="M8570 4431 c-87 -27 -177 -107 -223 -197 -14 -27 -224 -526 -467
-1109 -243 -583 -503 -1204 -576 -1379 -74 -175 -134 -323 -134 -327 0 -5 183
-9 408 -9 l407 0 79 230 78 230 504 0 c470 0 503 -1 508 -17 3 -10 21 -97 41
-193 20 -96 41 -192 46 -212 l10 -38 359 0 c198 0 360 2 360 4 0 2 -16 80 -35
173 -20 92 -51 242 -70 333 -19 91 -62 296 -95 455 -34 160 -85 407 -115 550
-29 143 -61 292 -69 330 -15 68 -41 190 -161 770 -31 149 -63 303 -71 343
l-16 72 -372 -1 c-204 0 -382 -4 -396 -8z m229 -868 c6 -27 49 -226 95 -443
47 -217 96 -448 110 -512 15 -65 26 -120 26 -123 0 -7 -645 -7 -652 0 -3 3 42
135 99 293 57 158 147 410 201 559 53 150 100 273 104 273 3 0 11 -21 17 -47z"/>
</g>
</svg>
