<svg xmlns="http://www.w3.org/2000/svg" viewBox="0 0 414.18 387.53" xmlns:v="https://vecta.io/nano"><style>.C{mix-blend-mode:multiply}.A{isolation:isolate}</style><defs><linearGradient id="A" x1="118.33" y1="352.45" x2="301.16" y2="35.78" gradientUnits="userSpaceOnUse"><stop offset=".24" stop-color="#d61f29"/><stop offset=".39" stop-color="#df3e26"/><stop offset=".61" stop-color="#eb6524"/><stop offset=".79" stop-color="#f27d22"/><stop offset=".9" stop-color="#f58622"/></linearGradient><linearGradient id="B" x1="114" y1="343.45" x2="277.16" y2="60.85" gradientUnits="userSpaceOnUse"><stop offset=".24" stop-color="#d61f29"/><stop offset=".39" stop-color="#df3e26"/><stop offset=".61" stop-color="#eb6524"/><stop offset=".79" stop-color="#f27d22"/><stop offset=".9" stop-color="#f58622"/></linearGradient></defs><g class="A"><path d="M392.51 186.33l-.1-2.48-1.99-1.48-7.32-5.36c-45.03-30.09-97.29-47.88-151.46-51.57V56.67c30.74 4.88 58.89 19.98 80.2 43.03 2.05 1.92 3.23 3.2 4.03 4.03-4.63 3.69-14.46 14.86-14.46 14.86l3.06.9c25.84 7.57 50.73 18.3 73.98 31.89l11.05 6.46-3.41-12.34C364.26 66.39 291.75 11.15 209.75 11.15c-100.89 0-182.96 82.08-182.96 182.96 0 10.24.91 20.71 2.7 31.12l1.32 7.68 29.54-18.65.13-.09c15.17-10.25 31.41-18.94 48.34-25.87 3.39 12.15 5.1 24.59 5.1 37.06 0 19.88-4.02 38.89-11.95 56.63-11.57-14.19-20.34-30.64-25.55-48.01l-2.05-6.77-5.87 3.96-32.4 20.67 1.41 3.91c26.05 72.55 95.27 121.3 172.24 121.3 100.88 0 182.96-82.07 182.96-182.96 0-2.75-.1-5.47-.2-7.78zM283.58 312.04c-15.71 9.84-33.48 16.48-51.94 19.42V169.33c12.57 1 25.08 2.88 37.34 5.62-4.77 16.49-7.19 33.42-7.19 50.41 0 30.4 7.52 60.25 21.78 86.68zm64.74-105.28c-2.5 27.47-13.29 53.8-30.72 75.21-7.98-17.81-12.03-36.81-12.03-56.6 0-12.53 1.76-25.08 5.23-37.37a267.48 267.48 0 0 1 37.51 18.77zM187.86 169.4v162.05c-18.46-2.94-36.24-9.6-51.96-19.47 14.28-26.47 21.81-56.31 21.81-86.62 0-16.91-2.39-33.78-7.12-50.22 12.23-2.78 24.73-4.7 37.27-5.74zm-54.58-35.16c-7.2-12.55-15.8-24.14-25.63-34.56 21.31-23.05 49.46-38.13 80.21-43.02v68.84c-18.53 1.31-36.85 4.25-54.58 8.74zm-34.92 16.7h0 0zm-3.21-4.32a312.39 312.39 0 0 0-18.86 8.22c2.24-7.62 5.11-15 8.58-22.04m-3.47-4.69h0 0z" fill="url(#A)"/><path class="C" d="M231.62 169.39v16.25c-19-1.26-34.87-.65-43.74-.05v-16.16c.83-.04 2.17-.23 4.38-.33 5.01-.29 11.74-.56 19.1-.56 5.28 0 14.71.51 20.26.85zM64.67 115.36c8.81 15.19 11.79 32.63 12.45 37.25 2.13-6.81 4.74-13.43 7.86-19.76-1.43-1.49-12.44-12.85-20.31-17.48zm30.57 31.29a305.66 305.66 0 0 0-16.43 7.09c9.01 1.13 18.2 6.5 28.51 24.79-2.27-13.47-7.37-23.84-10.21-28.81-1.2-2.1-1.87-3.06-1.87-3.06zm-9.01 158.8c7.01-8.01 12.38-16.99 15.83-23.53-5.97-7.32-11.19-15.25-15.56-23.59-.02-.02-.03-.05-.05-.07 4.55 17.85 3.37 35.54-.22 47.2zm73.4-241.05s.04 0 .05-.01a138.88 138.88 0 0 1 28.19-7.61V26.72s-9.88 27.68-28.24 37.68zm28.25 266.92v.03c-9.61-1.53-19.03-4.08-28.07-7.55 18.26 10.07 28.08 37.59 28.08 37.59v-30.06zm93.8-183.94c-13.51 4.68-22.3 16.4-27.01 24.81a272.31 272.31 0 0 1 14.27 2.78c.25-.75 7.28-19.12 12.75-27.59zM283 310.87s-.02 0-.04.01c.19.35.36.71.55 1.07a136.5 136.5 0 0 1-13.9 7.61c8.02 6.4 18.8 12.31 31.73 12.96-8.16-5.46-14.29-14.27-18.35-21.65z" fill="url(#B)"/></g></svg>