<svg width="646" height="674" viewBox="0 0 646 674" fill="none" xmlns="http://www.w3.org/2000/svg">
<path d="M155.18 557.86L125.94 440.42H125.46L96.7101 557.86H58.2901L12.6201 385.33H50.5601L77.8601 502.77H78.3401L108.3 385.33H143.82L173.3 504.22H173.78L202.05 385.33H239.26L192.87 557.86H155.18Z" fill="black"/>
<path d="M294.61 385.33V557.86H256.67V385.33H294.61Z" fill="black"/>
<path d="M420.98 385.33C428.71 385.33 435.68 386.58 441.88 389.08C448.08 391.58 453.4 395 457.83 399.35C462.26 403.7 465.64 408.74 467.98 414.45C470.31 420.17 471.48 426.33 471.48 432.94C471.48 443.09 469.34 451.87 465.08 459.28C460.81 466.69 453.84 472.33 444.18 476.19V476.67C448.85 477.96 452.72 479.93 455.78 482.59C458.84 485.25 461.34 488.39 463.27 492.01C465.2 495.63 466.61 499.62 467.5 503.97C468.38 508.32 468.99 512.67 469.31 517.02C469.47 519.76 469.63 522.98 469.79 526.69C469.95 530.4 470.23 534.18 470.64 538.05C471.04 541.92 471.68 545.58 472.57 549.05C473.45 552.52 474.78 555.45 476.56 557.87H438.62C436.52 552.39 435.24 545.87 434.75 538.3C434.27 530.73 433.54 523.48 432.57 516.55C431.28 507.53 428.54 500.93 424.35 496.74C420.16 492.55 413.31 490.46 403.81 490.46H365.87V557.88H327.93V385.35H420.96L420.98 385.33ZM407.45 463.38C416.15 463.38 422.67 461.45 427.02 457.58C431.37 453.71 433.54 447.43 433.54 438.73C433.54 430.03 431.37 424.27 427.02 420.49C422.67 416.71 416.15 414.81 407.45 414.81H365.89V463.38H407.45Z" fill="black"/>
<path d="M631.45 385.33V417.23H540.35V454.2H623.96V483.68H540.35V525.97H633.38V557.87H502.41V385.34H631.44L631.45 385.33Z" fill="black"/>
<path d="M0.759766 583.09H71.9998V596.4H44.0197V671.09H28.6097V596.4H0.759766V583.09Z" fill="black"/>
<path d="M82.2295 583.09H124.259C133.949 583.09 141.229 585.19 146.079 589.38C150.929 593.57 153.349 599.41 153.349 606.88C153.349 611.07 152.729 614.54 151.499 617.29C150.269 620.04 148.829 622.26 147.189 623.95C145.539 625.64 143.919 626.85 142.319 627.59C140.719 628.33 139.549 628.82 138.809 629.07V629.32C140.119 629.49 141.539 629.9 143.059 630.55C144.579 631.21 145.999 632.26 147.309 633.69C148.619 635.13 149.709 637 150.579 639.3C151.439 641.6 151.869 644.48 151.869 647.93C151.869 653.11 152.259 657.81 153.039 662.04C153.819 666.27 155.029 669.29 156.679 671.1H140.159C139.009 669.21 138.329 667.12 138.129 664.81C137.919 662.51 137.819 660.29 137.819 658.15C137.819 654.12 137.569 650.65 137.079 647.73C136.589 644.82 135.679 642.39 134.369 640.46C133.059 638.53 131.269 637.11 129.009 636.21C126.749 635.31 123.849 634.85 120.319 634.85H97.6395V671.09H82.2295V583.09ZM97.6395 623.15H122.909C127.839 623.15 131.579 621.98 134.129 619.64C136.679 617.3 137.949 613.78 137.949 609.1C137.949 606.31 137.539 604.03 136.719 602.26C135.899 600.49 134.769 599.12 133.329 598.13C131.889 597.14 130.249 596.49 128.399 596.16C126.549 595.83 124.639 595.67 122.669 595.67H97.6495V623.15H97.6395Z" fill="black"/>
<path d="M192.54 583.09H208.93L242.82 671.09H226.3L218.04 647.8H182.91L174.65 671.09H158.75L192.52 583.09H192.54ZM187.12 636.09H213.99L200.8 598.25H200.43L187.12 636.09Z" fill="black"/>
<path d="M250.59 583.09H266.86L307.04 647.92H307.29V583.09H321.96V671.09H305.69L265.63 606.38H265.26V671.09H250.59V583.09Z" fill="black"/>
<path d="M350.3 641.76C350.3 645.13 350.87 648.01 352.03 650.39C353.18 652.77 354.78 654.72 356.84 656.24C358.89 657.76 361.26 658.87 363.93 659.57C366.6 660.27 369.5 660.62 372.62 660.62C375.99 660.62 378.86 660.23 381.25 659.45C383.63 658.67 385.56 657.66 387.04 656.43C388.52 655.2 389.59 653.78 390.24 652.18C390.9 650.58 391.23 648.96 391.23 647.31C391.23 643.94 390.47 641.46 388.95 639.85C387.43 638.25 385.76 637.12 383.96 636.46C380.84 635.31 377.2 634.22 373.05 633.19C368.9 632.16 363.78 630.83 357.71 629.19C353.93 628.2 350.79 626.91 348.28 625.31C345.77 623.71 343.78 621.92 342.3 619.95C340.82 617.98 339.77 615.88 339.16 613.66C338.54 611.44 338.24 609.18 338.24 606.88C338.24 602.44 339.16 598.6 341.01 595.36C342.86 592.12 345.3 589.43 348.34 587.29C351.38 585.15 354.83 583.57 358.69 582.55C362.55 581.52 366.45 581.01 370.4 581.01C375 581.01 379.34 581.61 383.4 582.8C387.47 583.99 391.04 585.78 394.12 588.16C397.2 590.54 399.64 593.48 401.45 596.97C403.26 600.46 404.16 604.51 404.16 609.11H388.75C388.34 603.44 386.41 599.44 382.96 597.09C379.51 594.75 375.11 593.58 369.77 593.58C367.96 593.58 366.11 593.76 364.22 594.14C362.33 594.51 360.6 595.13 359.04 595.99C357.48 596.85 356.18 598.02 355.16 599.5C354.13 600.98 353.62 602.83 353.62 605.05C353.62 608.17 354.58 610.62 356.52 612.38C358.45 614.15 360.98 615.48 364.1 616.38C364.43 616.46 365.72 616.81 367.98 617.43C370.24 618.05 372.77 618.72 375.56 619.46C378.35 620.2 381.08 620.92 383.76 621.62C386.43 622.32 388.34 622.83 389.49 623.16C392.36 624.07 394.87 625.3 397.01 626.86C399.15 628.42 400.93 630.21 402.37 632.22C403.81 634.23 404.88 636.39 405.57 638.69C406.27 640.99 406.62 643.29 406.62 645.59C406.62 650.52 405.61 654.73 403.6 658.22C401.59 661.71 398.94 664.57 395.65 666.79C392.36 669.01 388.63 670.63 384.43 671.66C380.24 672.69 375.97 673.2 371.61 673.2C366.6 673.2 361.87 672.58 357.44 671.35C353 670.12 349.14 668.23 345.85 665.68C342.56 663.13 339.93 659.87 337.96 655.88C335.99 651.9 334.96 647.19 334.88 641.77H350.29L350.3 641.76Z" fill="black"/>
<path d="M420.06 583.09H480.82V596.4H435.46V619.45H475.27V632.02H435.46V671.09H420.05V583.09H420.06Z" fill="black"/>
<path d="M493.149 583.09H556.499V596.4H508.559V619.45H552.929V632.02H508.559V657.78H557.369V671.09H493.159V583.09H493.149Z" fill="black"/>
<path d="M570.79 583.09H612.82C622.51 583.09 629.79 585.19 634.64 589.38C639.49 593.57 641.91 599.41 641.91 606.88C641.91 611.07 641.29 614.54 640.06 617.29C638.83 620.04 637.39 622.26 635.75 623.95C634.1 625.64 632.48 626.85 630.88 627.59C629.28 628.33 628.11 628.82 627.37 629.07V629.32C628.68 629.49 630.1 629.9 631.62 630.55C633.14 631.21 634.56 632.26 635.87 633.69C637.18 635.13 638.27 637 639.14 639.3C640 641.6 640.43 644.48 640.43 647.93C640.43 653.11 640.82 657.81 641.6 662.04C642.38 666.27 643.59 669.29 645.24 671.1H628.72C627.57 669.21 626.89 667.12 626.69 664.81C626.48 662.51 626.38 660.29 626.38 658.15C626.38 654.12 626.13 650.65 625.64 647.73C625.15 644.82 624.24 642.39 622.93 640.46C621.61 638.53 619.83 637.11 617.57 636.21C615.31 635.31 612.41 634.85 608.88 634.85H586.2V671.09H570.79V583.09ZM586.2 623.15H611.47C616.4 623.15 620.14 621.98 622.69 619.64C625.24 617.3 626.51 613.78 626.51 609.1C626.51 606.31 626.1 604.03 625.28 602.26C624.46 600.49 623.33 599.12 621.89 598.13C620.45 597.14 618.81 596.49 616.96 596.16C615.11 595.83 613.2 595.67 611.23 595.67H586.21V623.15H586.2Z" fill="black"/>
<path d="M456.5 110.49C456.5 110.49 460.98 236.67 308.54 253.33L310.14 203.7C310.25 200.28 306.05 198.57 303.75 201.1C293.24 212.66 270.56 237.82 236.97 276.26C232.11 281.82 232.45 290.21 237.74 295.36C249.77 307.06 273.55 328.85 309.38 355.83C311.96 357.77 315.62 355.68 315.25 352.47C313.74 339.4 310.88 315.11 309.82 308.41C309.82 308.41 479.17 250.92 456.5 110.49Z" fill="black"/>
<path d="M189.5 245.64C189.5 245.64 185.27 122.56 337.46 102.8L335.83 153.31C335.72 156.64 339.74 158.38 342.1 156.04C352.95 145.28 376.74 120.56 409.47 80.17C414.07 74.49 413.51 66.22 408.15 61.25C395.73 49.73 371.35 27.91 337.17 0.989992C334.54 -1.08001 330.74 1.12999 331.25 4.42999C333.28 17.47 336.63 40.52 336.18 47.72C336.18 47.72 166.83 105.21 189.5 245.64Z" fill="black"/>
</svg>
